<?xml version="1.0" encoding="UTF-8" standalone="no"?>
<!-- Created with Inkscape (http://www.inkscape.org/) -->

<svg
   xmlns:osb="http://www.openswatchbook.org/uri/2009/osb"
   xmlns:dc="http://purl.org/dc/elements/1.1/"
   xmlns:cc="http://creativecommons.org/ns#"
   xmlns:rdf="http://www.w3.org/1999/02/22-rdf-syntax-ns#"
   xmlns:svg="http://www.w3.org/2000/svg"
   xmlns="http://www.w3.org/2000/svg"
   xmlns:xlink="http://www.w3.org/1999/xlink"
   xmlns:sodipodi="http://sodipodi.sourceforge.net/DTD/sodipodi-0.dtd"
   xmlns:inkscape="http://www.inkscape.org/namespaces/inkscape"
   width="468px"
   height="60px"
   id="svg2993"
   version="1.1"
   inkscape:version="0.48.5 r10040"
   sodipodi:docname="logo.svg">
  <defs
     id="defs2995">
    <linearGradient
       id="linearGradient4131">
      <stop
         id="stop4133"
         offset="0"
         style="stop-color:#000000;stop-opacity:1;" />
      <stop
         id="stop4135"
         offset="1"
         style="stop-color:#000000;stop-opacity:0;" />
    </linearGradient>
    <linearGradient
       id="linearGradient4125">
      <stop
         style="stop-color:#000000;stop-opacity:1;"
         offset="0"
         id="stop4127" />
      <stop
         style="stop-color:#000000;stop-opacity:0;"
         offset="1"
         id="stop4129" />
    </linearGradient>
    <linearGradient
       id="linearGradient4119">
      <stop
         id="stop4121"
         offset="0"
         style="stop-color:#000000;stop-opacity:1;" />
      <stop
         id="stop4123"
         offset="1"
         style="stop-color:#000000;stop-opacity:0;" />
    </linearGradient>
    <linearGradient
       id="linearGradient4113">
      <stop
         style="stop-color:#000000;stop-opacity:1;"
         offset="0"
         id="stop4115" />
      <stop
         style="stop-color:#000000;stop-opacity:0;"
         offset="1"
         id="stop4117" />
    </linearGradient>
    <linearGradient
       id="linearGradient4107">
      <stop
         id="stop4109"
         offset="0"
         style="stop-color:#000000;stop-opacity:1;" />
      <stop
         id="stop4111"
         offset="1"
         style="stop-color:#000000;stop-opacity:0;" />
    </linearGradient>
    <linearGradient
       id="linearGradient4101">
      <stop
         style="stop-color:#000000;stop-opacity:1;"
         offset="0"
         id="stop4103" />
      <stop
         style="stop-color:#000000;stop-opacity:0;"
         offset="1"
         id="stop4105" />
    </linearGradient>
    <linearGradient
       id="linearGradient4095">
      <stop
         id="stop4097"
         offset="0"
         style="stop-color:#000000;stop-opacity:1;" />
      <stop
         id="stop4099"
         offset="1"
         style="stop-color:#000000;stop-opacity:0;" />
    </linearGradient>
    <linearGradient
       id="linearGradient4089">
      <stop
         style="stop-color:#000000;stop-opacity:1;"
         offset="0"
         id="stop4091" />
      <stop
         style="stop-color:#000000;stop-opacity:0;"
         offset="1"
         id="stop4093" />
    </linearGradient>
    <linearGradient
       id="linearGradient4083">
      <stop
         id="stop4085"
         offset="0"
         style="stop-color:#000000;stop-opacity:1;" />
      <stop
         id="stop4087"
         offset="1"
         style="stop-color:#000000;stop-opacity:0;" />
    </linearGradient>
    <linearGradient
       id="linearGradient4077">
      <stop
         style="stop-color:#000000;stop-opacity:1;"
         offset="0"
         id="stop4079" />
      <stop
         style="stop-color:#000000;stop-opacity:0;"
         offset="1"
         id="stop4081" />
    </linearGradient>
    <linearGradient
       id="linearGradient4071">
      <stop
         id="stop4073"
         offset="0"
         style="stop-color:#000000;stop-opacity:1;" />
      <stop
         id="stop4075"
         offset="1"
         style="stop-color:#000000;stop-opacity:0;" />
    </linearGradient>
    <linearGradient
       id="linearGradient4065">
      <stop
         style="stop-color:#000000;stop-opacity:1;"
         offset="0"
         id="stop4067" />
      <stop
         style="stop-color:#000000;stop-opacity:0;"
         offset="1"
         id="stop4069" />
    </linearGradient>
    <linearGradient
       id="linearGradient4059">
      <stop
         id="stop4061"
         offset="0"
         style="stop-color:#000000;stop-opacity:1;" />
      <stop
         id="stop4063"
         offset="1"
         style="stop-color:#000000;stop-opacity:0;" />
    </linearGradient>
    <linearGradient
       id="linearGradient4053">
      <stop
         style="stop-color:#000000;stop-opacity:1;"
         offset="0"
         id="stop4055" />
      <stop
         style="stop-color:#000000;stop-opacity:0;"
         offset="1"
         id="stop4057" />
    </linearGradient>
    <linearGradient
       id="linearGradient4047">
      <stop
         id="stop4049"
         offset="0"
         style="stop-color:#000000;stop-opacity:1;" />
      <stop
         id="stop4051"
         offset="1"
         style="stop-color:#000000;stop-opacity:0;" />
    </linearGradient>
    <linearGradient
       id="linearGradient4041">
      <stop
         style="stop-color:#000000;stop-opacity:1;"
         offset="0"
         id="stop4043" />
      <stop
         style="stop-color:#000000;stop-opacity:0;"
         offset="1"
         id="stop4045" />
    </linearGradient>
    <linearGradient
       id="linearGradient4035">
      <stop
         id="stop4037"
         offset="0"
         style="stop-color:#000000;stop-opacity:1;" />
      <stop
         id="stop4039"
         offset="1"
         style="stop-color:#000000;stop-opacity:0;" />
    </linearGradient>
    <linearGradient
       id="linearGradient4029">
      <stop
         style="stop-color:#000000;stop-opacity:1;"
         offset="0"
         id="stop4031" />
      <stop
         style="stop-color:#000000;stop-opacity:0;"
         offset="1"
         id="stop4033" />
    </linearGradient>
    <linearGradient
       id="linearGradient4023">
      <stop
         id="stop4025"
         offset="0"
         style="stop-color:#000000;stop-opacity:1;" />
      <stop
         id="stop4027"
         offset="1"
         style="stop-color:#000000;stop-opacity:0;" />
    </linearGradient>
    <linearGradient
       id="linearGradient4017">
      <stop
         style="stop-color:#000000;stop-opacity:1;"
         offset="0"
         id="stop4019" />
      <stop
         style="stop-color:#000000;stop-opacity:0;"
         offset="1"
         id="stop4021" />
    </linearGradient>
    <linearGradient
       id="linearGradient4011">
      <stop
         id="stop4013"
         offset="0"
         style="stop-color:#000000;stop-opacity:1;" />
      <stop
         id="stop4015"
         offset="1"
         style="stop-color:#000000;stop-opacity:0;" />
    </linearGradient>
    <linearGradient
       id="linearGradient4003">
      <stop
         style="stop-color:#000000;stop-opacity:1;"
         offset="0"
         id="stop4005" />
      <stop
         style="stop-color:#000000;stop-opacity:0;"
         offset="1"
         id="stop4007" />
    </linearGradient>
    <linearGradient
       id="linearGradient3902"
       osb:paint="solid">
      <stop
         style="stop-color:#ffffff;stop-opacity:1;"
         offset="0"
         id="stop3904" />
    </linearGradient>
    <linearGradient
       inkscape:collect="always"
       xlink:href="#linearGradient4125"
       id="linearGradient4009"
       x1="133.08788"
       y1="19.166666"
       x2="146.91212"
       y2="19.166666"
       gradientUnits="userSpaceOnUse"
       spreadMethod="pad" />
  </defs>
  <sodipodi:namedview
     id="base"
     pagecolor="#ffffff"
     bordercolor="#666666"
     borderopacity="1.0"
     inkscape:pageopacity="0.0"
     inkscape:pageshadow="2"
     inkscape:zoom="3.1961226"
     inkscape:cx="242.53226"
     inkscape:cy="34.103644"
     inkscape:document-units="px"
     inkscape:current-layer="layer1"
     showgrid="false"
     inkscape:window-width="935"
     inkscape:window-height="666"
     inkscape:window-x="317"
     inkscape:window-y="238"
     inkscape:window-maximized="0" />
  <metadata
     id="metadata2998">
    <rdf:RDF>
      <cc:Work
         rdf:about="">
        <dc:format>image/svg+xml</dc:format>
        <dc:type
           rdf:resource="http://purl.org/dc/dcmitype/StillImage" />
        <dc:title />
      </cc:Work>
    </rdf:RDF>
  </metadata>

   <g> <text
       sodipodi:linespacing="125%"
       id="texte"
       y="31.666668"
       x="165.83333"
       style=""
       xml:space="preserve"
       inkscape:label="#text3049"><tspan
         style="font-size:20px;font-family:Bauhaus 93;-inkscape-font-specification:Bauhaus 93"
         y="31.666668"
         x="165.83333"
         id="tspan3051"
         sodipodi:role="line">Me I &amp; Myself</tspan>
       <animate attributeName="fill" attributeType="XML"  
               begin="0s"
               dur="2s" 
               values="black;grey;blue;gold;azure;darkred;purple;gray"
               calcMode="linear" 
               repeatCount="indefinite"/></text></g>
    <rect
       y="32.682762"
       x="94.166656"
       height="27.500002"
       width="64.166664"
       id="sol2"
       style="fill:#00ff00"
       inkscape:label="#rect3053">
      <title
         id="title5244">solvert</title>
    </rect>
    <rect
       y="31.904762"
       x="94.008896"
       height="28.357145"
       width="64.445831"
       id="sol"
       style="fill:#008000"
       inkscape:label="#rect3053" />
    <rect
       y="5.1246802e-006"
       x="94.166672"
       height="43.125004"
       width="64.166664"
       id="ciel2"
       style="fill:#0000ff"
       inkscape:label="#rect3053-4">
      <title
         id="title5242">cielbleu</title>
    </rect>
    <rect
       y="0.00037687214"
       x="94.041679"
       height="43.125004"
       width="64.166664"
       id="ciel"
       style="fill:#000080"
       inkscape:label="#rect3053-4" />
    <path
       style="fill:#ffffff;fill-opacity:1;stroke:#000000;stroke-width:0.9999637;stroke-miterlimit:4;stroke-opacity:1;stroke-dasharray:none"
       d="m 146.66667,19.166666 a 6.6666665,6.6666665 0 1 1 -13.33334,0 6.6666665,6.6666665 0 1 1 13.33334,0 z"
       sodipodi:ry="6.6666665"
       sodipodi:rx="6.6666665"
       sodipodi:cy="19.166666"
       sodipodi:cx="140"
       id="path3055-9-4"
       sodipodi:type="arc"
       transform="matrix(0.40191439,-0.2092536,0.39686029,0.76225145,62.231279,59.990206)"
       inkscape:transform-center-x="3.7655357" />
    <path
       style="fill:#ffffff;stroke:#000000;stroke-width:0.32730168;stroke-miterlimit:4;stroke-opacity:1;stroke-dasharray:none"
       d="m 146.66667,19.166666 a 6.6666665,6.6666665 0 1 1 -13.33334,0 6.6666665,6.6666665 0 1 1 13.33334,0 z"
       sodipodi:ry="6.6666665"
       sodipodi:rx="6.6666665"
       sodipodi:cy="19.166666"
       sodipodi:cx="140"
       id="path3055-0-1"
       sodipodi:type="arc"
       transform="matrix(0.41753258,0,0,0.36422471,40.220081,32.120802)" />
    <path
       style="fill:#ffffff;stroke:#000000;stroke-opacity:1"
       d="m 146.66667,19.166666 a 6.6666665,6.6666665 0 1 1 -13.33334,0 6.6666665,6.6666665 0 1 1 13.33334,0 z"
       sodipodi:ry="6.6666665"
       sodipodi:rx="6.6666665"
       sodipodi:cy="19.166666"
       sodipodi:cx="140"
       id="path3055-9-8-7"
       sodipodi:type="arc"
       transform="matrix(0.39541841,0.22128382,-0.41967622,0.74993149,61.401311,1.3134729)" />
    <path
       style="fill:#ffffff;stroke:#000000;stroke-opacity:1;stroke-width:0.32730167;stroke-miterlimit:4;stroke-dasharray:none"
       d="m 146.66667,19.166666 a 6.6666665,6.6666665 0 1 1 -13.33334,0 6.6666665,6.6666665 0 1 1 13.33334,0 z"
       sodipodi:ry="6.6666665"
       sodipodi:rx="6.6666665"
       sodipodi:cy="19.166666"
       sodipodi:cx="140"
       id="path3055-0"
       sodipodi:type="arc"
       transform="matrix(2.234375,0,0,1.9375,-198.125,1.4062511)" />
    <path
       style="fill:#ffffff;stroke:#000000;stroke-opacity:1"
       d="m 146.66667,19.166666 a 6.6666665,6.6666665 0 1 1 -13.33334,0 6.6666665,6.6666665 0 1 1 13.33334,0 z"
       sodipodi:ry="6.6666665"
       sodipodi:rx="6.6666665"
       sodipodi:cy="19.166666"
       sodipodi:cx="140"
       id="path3055-9-8-2-7"
       sodipodi:type="arc"
       transform="matrix(0.28928604,-0.16780062,0.14697397,1.1879824,82.656308,14.889092)" />
    <path
       style="fill:#ffffff;stroke:#000000;stroke-opacity:1;stroke-width:0.49090909;stroke-miterlimit:4;stroke-dasharray:none"
       d="m 146.66667,19.166666 a 6.6666665,6.6666665 0 1 1 -13.33334,0 6.6666665,6.6666665 0 1 1 13.33334,0 z"
       sodipodi:ry="6.6666665"
       sodipodi:rx="6.6666665"
       sodipodi:cy="19.166666"
       sodipodi:cx="140"
       id="path3055"
       sodipodi:type="arc"
       transform="matrix(1.375,0,0,1.375,-65.208335,1.5625001)" />
    <path
       style="fill:#ffffff;stroke:#000000;stroke-opacity:1"
       d="m 146.66667,19.166666 a 6.6666665,6.6666665 0 1 1 -13.33334,0 6.6666665,6.6666665 0 1 1 13.33334,0 z"
       sodipodi:ry="6.6666665"
       sodipodi:rx="6.6666665"
       sodipodi:cy="19.166666"
       sodipodi:cx="140"
       id="path3055-9"
       sodipodi:type="arc"
       transform="matrix(0.40191439,-0.2092536,0.39686029,0.76225145,58.345069,61.20017)" />
    <path
       style="fill:#ffffff;stroke:#000000;stroke-opacity:1"
       d="m 146.66667,19.166666 a 6.6666665,6.6666665 0 1 1 -13.33334,0 6.6666665,6.6666665 0 1 1 13.33334,0 z"
       sodipodi:ry="6.6666665"
       sodipodi:rx="6.6666665"
       sodipodi:cy="19.166666"
       sodipodi:cx="140"
       id="path3055-9-8"
       sodipodi:type="arc"
       transform="matrix(0.39541841,0.22128382,-0.41967622,0.74993149,57.813392,1.6177813)" />
    <path
       style="fill:#ff8080;stroke:#000000;stroke-opacity:1"
       d="m 146.66667,19.166666 a 6.6666665,6.6666665 0 1 1 -13.33334,0 6.6666665,6.6666665 0 1 1 13.33334,0 z"
       sodipodi:ry="6.6666665"
       sodipodi:rx="6.6666665"
       sodipodi:cy="19.166666"
       sodipodi:cx="140"
       id="path3055-9-8-2"
       sodipodi:type="arc"
       transform="matrix(0.32126396,-0.16780062,0.1632206,1.1879824,72.273843,17.27093)" />
    <path
       style="fill:#ffffff;stroke:#000000;stroke-width:0.4909091;stroke-miterlimit:4;stroke-opacity:1;stroke-dasharray:none"
       d="m 146.66667,19.166666 a 6.6666665,6.6666665 0 1 1 -13.33334,0 6.6666665,6.6666665 0 1 1 13.33334,0 z"
       sodipodi:ry="6.6666665"
       sodipodi:rx="6.6666665"
       sodipodi:cy="19.166666"
       sodipodi:cx="140"
       id="path3055-2-9"
       sodipodi:type="arc"
       transform="matrix(0.78164838,0,0,0.3916525,26.098026,22.588603)" />
    <path
       style="fill:#ff0000;stroke:#000000;stroke-width:0.4909091;stroke-miterlimit:4;stroke-opacity:1;stroke-dasharray:none"
       d="m 146.66667,19.166666 a 6.6666665,6.6666665 0 1 1 -13.33334,0 6.6666665,6.6666665 0 1 1 13.33334,0 z"
       sodipodi:ry="6.6666665"
       sodipodi:rx="6.6666665"
       sodipodi:cy="19.166666"
       sodipodi:cx="140"
       id="path3055-6-4"
       sodipodi:type="arc"
       transform="matrix(0.51156061,0.03354821,-0.12288404,0.11770123,66.112654,24.803636)"
       inkscape:transform-center-x="-1.0851436"
       inkscape:transform-center-y="-0.48968709" />
    <path
       style="fill:#ffffff;stroke:#000000;stroke-width:0.4909091;stroke-miterlimit:4;stroke-opacity:1;stroke-dasharray:none"
       d="m 146.66667,19.166666 a 6.6666665,6.6666665 0 1 1 -13.33334,0 6.6666665,6.6666665 0 1 1 13.33334,0 z"
       sodipodi:ry="6.6666665"
       sodipodi:rx="6.6666665"
       sodipodi:cy="19.166666"
       sodipodi:cx="140"
       id="path3055-6-0"
       sodipodi:type="arc"
       transform="matrix(0.56749719,0.51402659,-0.26880785,0.24277785,59.372194,-42.368302)"
       inkscape:transform-center-x="-1.7946499"
       inkscape:transform-center-y="-0.54300381" />
    <path
       style="fill:#ff0000;stroke:#000000;stroke-width:0.4909091;stroke-miterlimit:4;stroke-opacity:1;stroke-dasharray:none"
       d="m 146.66667,19.166666 a 6.6666665,6.6666665 0 1 1 -13.33334,0 6.6666665,6.6666665 0 1 1 13.33334,0 z"
       sodipodi:ry="6.6666665"
       sodipodi:rx="6.6666665"
       sodipodi:cy="19.166666"
       sodipodi:cx="140"
       id="path3055-6"
       sodipodi:type="arc"
       transform="matrix(0.39474604,0.29517967,-0.2187245,0.15463154,82.522683,-11.1058)"
       inkscape:transform-center-x="-1.3899127"
       inkscape:transform-center-y="-0.37968104" />
    <path
       style="fill:#ffffff;stroke:#000000;stroke-width:0.4909091;stroke-miterlimit:4;stroke-opacity:1;stroke-dasharray:none"
       d="m 146.66667,19.166666 a 6.6666665,6.6666665 0 1 1 -13.33334,0 6.6666665,6.6666665 0 1 1 13.33334,0 z"
       sodipodi:ry="6.6666665"
       sodipodi:rx="6.6666665"
       sodipodi:cy="19.166666"
       sodipodi:cx="140"
       id="path3055-61"
       sodipodi:type="arc"
       transform="matrix(0.20877033,0,0,0.24690247,99.209029,20.205688)" />
    <path
       style="fill:#000000;stroke:#000000;stroke-width:0.4909091;stroke-miterlimit:4;stroke-opacity:1;stroke-dasharray:none"
       d="m 146.66667,19.166666 a 6.6666665,6.6666665 0 1 1 -13.33334,0 6.6666665,6.6666665 0 1 1 13.33334,0 z"
       sodipodi:ry="6.6666665"
       sodipodi:rx="6.6666665"
       sodipodi:cy="19.166666"
       sodipodi:cx="140"
       id="path3055-61-8"
       sodipodi:type="arc"
       transform="matrix(0.10794157,0,0,0.11386481,113.83348,22.794686)" />
    <g
       id="monstre"
       inkscape:label="#g4210">
      <path
         inkscape:connector-curvature="0"
         id="path4925"
         d="m 137.95948,32.120842 c -0.47042,-0.130753 -0.0917,0.128559 -0.14731,0.184142 -0.009,0.0087 -0.0313,-0.01098 -0.0368,0 -0.022,0.04392 0.0119,0.09968 0,0.147314 -0.0133,0.05326 -0.0563,0.09523 -0.0737,0.147314 -0.008,0.02329 0.0174,0.0563 0,0.07366 -0.0174,0.01736 -0.0563,-0.01736 -0.0737,0 -0.009,0.0087 0.0123,0.03683 0,0.03683 -0.0174,0 -0.0195,-0.03683 -0.0368,-0.03683 -0.0246,0 0.0174,0.0563 0,0.07366 -0.009,0.0087 -0.0281,-0.0087 -0.0368,0 -0.009,0.0087 0.009,0.02815 0,0.03683 -0.0123,0.01229 -0.0614,-0.01229 -0.0737,0 -0.009,0.0087 0,0.02455 0,0.03683 0,0.01228 0.0123,0.03683 0,0.03683 -0.0123,0 0,-0.02455 0,-0.03683 0,0.02455 0.0136,0.05323 0,0.07366 -0.0152,0.02284 -0.0542,0.01742 -0.0737,0.03683 -0.0174,0.01736 0.011,0.0517 0,0.07366 -0.008,0.01553 -0.0291,0.0213 -0.0368,0.03683 -0.005,0.01098 0.009,0.02815 0,0.03683 -0.009,0.0087 -0.0313,-0.01098 -0.0368,0 -0.011,0.02196 0.011,0.0517 0,0.07366 -0.005,0.01098 -0.0282,-0.0087 -0.0368,0 -0.008,0.0075 0.007,0.09588 0,0.110486 -0.008,0.01553 -0.0291,0.0213 -0.0368,0.03683 -0.0116,0.02315 0.0116,0.124166 0,0.147314 -0.008,0.01553 -0.0291,0.0213 -0.0368,0.03683 -0.005,0.01098 0.009,0.02815 0,0.03683 -0.009,0.0087 -0.0282,-0.0087 -0.0368,0 -0.009,0.0087 0,0.02455 0,0.03683 0,0.07366 0,0.147314 0,0.220971 0,0.01228 0.009,0.02815 0,0.03683 -0.009,0.0087 -0.0246,0 -0.0368,0 -0.11229,0 -4.9e-4,-0.03733 -0.0368,-0.07366 -0.0491,-0.0491 -0.0368,0.06138 -0.0368,-0.03683 0,-0.31918 0,-0.63836 0,-0.95754 0,-0.09821 0,-0.196419 0,-0.294628 0,-0.01228 0.009,-0.02815 0,-0.03683 -0.009,-0.0087 -0.0282,0.0087 -0.0368,0 -0.001,-0.0012 0,-0.101554 0,-0.110486 0,-0.01228 0,-0.02455 0,-0.03683 0,-0.01228 -0.0123,-0.03683 0,-0.03683 0.0123,0 -0.0123,0.03683 0,0.03683 0.0174,0 0.0213,-0.02907 0.0368,-0.03683 0.011,-0.0055 0.0246,0 0.0368,0 0.0123,0 0.0246,0 0.0368,0 0.0614,0 0.12276,0 0.18415,0 0.0982,0 0.19641,0 0.29462,0 0.0193,0 0.13763,0.0048 0.14732,0 0.064,-0.03201 0.12276,-0.07366 0.18414,-0.110485 z"
         style="fill:#ffffff;stroke:#000000;stroke-width:0.1;stroke-linecap:butt;stroke-linejoin:miter;stroke-miterlimit:4;stroke-opacity:1;stroke-dasharray:none" />
      <path
         transform="matrix(0.21406287,0,0,0.24531287,98.468698,20.194003)"
         sodipodi:type="arc"
         id="path3055-7"
         sodipodi:cx="140"
         sodipodi:cy="19.166666"
         sodipodi:rx="6.6666665"
         sodipodi:ry="6.6666665"
         d="m 146.66667,19.166666 c 0,3.681898 -2.98477,6.666667 -6.66667,6.666667 -3.6819,0 -6.66667,-2.984769 -6.66667,-6.666667 C 133.33333,15.484768 136.3181,12.5 140,12.5 c 3.6819,0 6.66667,2.984768 6.66667,6.666666 z"
         style="fill:#ff0000;stroke:#000000;stroke-width:0.4909091;stroke-miterlimit:4;stroke-opacity:1;stroke-dasharray:none" />
      <path
         inkscape:connector-curvature="0"
         id="path4893"
         d="m 139.98504,30.684532 c 0,0.07366 0,0.147314 0,0.220971 0,0.01228 0.009,0.02815 0,0.03683 -0.009,0.0087 -0.0246,0 -0.0368,0 -0.0123,0.02455 -0.0282,0.04761 -0.0368,0.07366 -0.004,0.01165 0.009,0.02815 0,0.03683 -0.009,0.0087 -0.0313,-0.01098 -0.0368,0 -0.0154,0.03073 0.0171,0.130167 0,0.147314 -0.0174,0.01736 -0.0491,0 -0.0737,0 0,0.02455 0.0174,0.0563 0,0.07366 -0.0174,0.01736 -0.0563,-0.01736 -0.0736,0 -0.0275,0.02745 -0.0153,0.07818 -0.0368,0.110486 -0.007,0.01021 -0.0282,-0.0087 -0.0368,0 -0.009,0.0087 0,0.02455 0,0.03683 -0.0245,0.01228 -0.0542,0.01742 -0.0737,0.03683 -0.009,0.0087 0.005,0.02585 0,0.03683 -0.12214,0.122145 0.0174,-0.03472 -0.0368,0.07366 -0.0766,0.153271 0.003,-0.03937 -0.0736,0.03683 -0.0174,0.01736 0.011,0.0517 0,0.07366 -0.0155,0.03106 -0.0581,0.0426 -0.0737,0.07366 -0.005,0.01098 0,0.02455 0,0.03683 -0.0123,0.01228 -0.0291,0.0213 -0.0368,0.03683 -0.005,0.01098 0.009,0.02815 0,0.03683 -0.009,0.0087 -0.0282,-0.0087 -0.0368,0 -0.009,0.0087 0.009,0.02815 0,0.03683 -0.009,0.0087 -0.0281,-0.0087 -0.0368,0 -0.009,0.0087 0.005,0.02585 0,0.03683 -0.008,0.01553 -0.0313,0.02036 -0.0368,0.03683 -0.008,0.02329 0.011,0.0517 0,0.07366 -0.005,0.01098 -0.0282,-0.0087 -0.0368,0 -0.0123,0.01226 0.0123,0.0614 0,0.07366 -0.009,0.0087 -0.0282,-0.0087 -0.0368,0 -0.0101,0.01008 0.01,0.127335 0,0.147314 -0.008,0.01553 -0.0291,0.0213 -0.0368,0.03683 -0.0147,0.02946 0.0147,0.08102 0,0.110485 -0.008,0.01553 -0.0291,0.0213 -0.0368,0.03683 -0.011,0.02196 0.011,0.0517 0,0.07366 -0.008,0.01553 -0.0291,0.0213 -0.0368,0.03683 -0.011,0.02196 0.0174,0.0563 0,0.07366 -0.009,0.0087 -0.0281,-0.0087 -0.0368,0 -0.009,0.0087 0,0.02455 0,0.03683 0,0.05009 0.0198,0.118983 -0.0368,0.147314 -0.0361,0.01806 -0.0537,-0.01686 -0.0737,-0.03683 -0.0659,-0.06593 -0.15372,-0.129714 -0.18414,-0.220971 -0.004,-0.01165 0,-0.02455 0,-0.03683 0,-0.08637 0.009,0.01736 -0.0368,-0.07366 -0.005,-0.01098 0.005,-0.02585 0,-0.03683 -0.008,-0.01553 -0.0313,-0.02036 -0.0368,-0.03683 -0.008,-0.02329 0.011,-0.0517 0,-0.07366 -0.005,-0.01098 -0.0246,0 -0.0368,0 -0.0123,-0.02455 -0.0282,-0.04762 -0.0368,-0.07366 -0.005,-0.01433 0.006,-0.10477 0,-0.110486 -0.009,-0.0087 -0.0281,0.0087 -0.0368,0 -0.008,-0.0075 0.007,-0.09588 0,-0.110485 -0.0155,-0.03106 -0.0581,-0.0426 -0.0736,-0.07366 -0.011,-0.02196 0.0174,-0.0563 0,-0.07366 -0.009,-0.0087 -0.0282,0.0087 -0.0368,0 -0.0174,-0.01736 0.011,-0.0517 0,-0.07366 -0.008,-0.01553 -0.0291,-0.0213 -0.0368,-0.03683 -0.011,-0.02196 0.0174,-0.0563 0,-0.07366 -0.18046,-0.09023 -0.0308,0.01205 -0.0737,-0.07366 -0.008,-0.01553 -0.0313,-0.02036 -0.0368,-0.03683 -0.008,-0.02329 0.011,-0.0517 0,-0.07366 -0.005,-0.01098 -0.0281,0.0087 -0.0368,0 -0.009,-0.0087 0.005,-0.02585 0,-0.03683 -0.008,-0.01553 -0.0291,-0.0213 -0.0368,-0.03683 -0.005,-0.01098 0.009,-0.02815 0,-0.03683 -0.009,-0.0087 -0.0282,0.0087 -0.0368,0 -0.009,-0.0087 0.009,-0.02815 0,-0.03683 -0.009,-0.0087 -0.0281,0.0087 -0.0368,0 -0.009,-0.0087 0.009,-0.02815 0,-0.03683 -0.009,-0.0087 -0.0282,0.0087 -0.0368,0 -0.009,-0.0087 0,-0.02455 0,-0.03683 0,-0.07366 0,-0.147314 0,-0.220971 0.0611,0.02455 0.11877,0.06068 0.18333,0.07365 0.012,0.0024 -0.005,-0.02585 0,-0.03683 0.008,-0.01553 0.0213,-0.02906 0.0368,-0.03683 0.011,-0.0055 0.0246,0 0.0368,0 0.0123,0 0.0246,0 0.0368,0 0.0737,0 0.14731,0 0.22097,0 0.0123,0 0.0281,0.0087 0.0368,0 0.0194,-0.01941 0.0174,-0.05425 0.0368,-0.07366 0.009,-0.0087 0.0259,0.0055 0.0368,0 0.0155,-0.0078 0.0213,-0.02906 0.0368,-0.03683 0.022,-0.01098 0.0627,0.02196 0.0736,0 0.011,-0.02196 -0.011,-0.0517 0,-0.07366 0.002,-0.0038 0.12213,0.0084 0.14732,0 0.026,-0.0087 0.0476,-0.02815 0.0736,-0.03683 0.0117,-0.0039 0.0246,0 0.0368,0 0.0246,0 0.0491,0 0.0737,0 0.0614,0 0.12276,0 0.18414,0 0.0278,0 0.13297,0.0057 0.14731,0 0.0411,-0.01644 0.0709,-0.05386 0.11049,-0.07366 0.0231,-0.01157 0.12417,0.01157 0.14731,0 0.0155,-0.0078 0.0204,-0.03134 0.0368,-0.03683 0.0594,-0.01979 0.12276,-0.02455 0.18414,-0.03683 z"
         style="fill:#ffffff;stroke:#000000;stroke-width:0.2;stroke-linecap:butt;stroke-linejoin:miter;stroke-miterlimit:4;stroke-opacity:1;stroke-dasharray:none" />
      <path
         inkscape:connector-curvature="0"
         id="path4921"
         d="m 133.72451,31.604935 c 0.0105,-0.17361 -0.14073,0.0434 -0.18414,0 -0.009,-0.009 0.009,-0.0281 0,-0.0368 -0.009,-0.009 -0.0246,0 -0.0368,0 -0.0123,0 -0.0246,0 -0.0368,0 -0.005,0 -0.2401,0.006 -0.2578,0 -0.026,-0.009 -0.0476,-0.0282 -0.0737,-0.0368 -0.0233,-0.008 -0.0563,0.0174 -0.0737,0 -0.009,-0.009 0.009,-0.0282 0,-0.0368 -0.009,-0.009 -0.0246,0 -0.0368,0 -0.0197,0 -0.1736,0.005 -0.18414,0 -0.079,-0.0395 -0.002,-0.0402 -0.0368,-0.11049 -0.005,-0.011 -0.0282,0.009 -0.0368,0 -0.009,-0.009 0.009,-0.0281 0,-0.0368 -0.0123,-0.0123 -0.0614,0.0123 -0.0737,0 -0.009,-0.009 0.011,-0.0313 0,-0.0368 -0.022,-0.011 -0.0517,0.011 -0.0737,0 -0.011,-0.006 0.009,-0.0282 0,-0.0368 -0.006,-0.006 -0.0961,0.005 -0.11049,0 -0.026,-0.009 -0.0476,-0.0281 -0.0736,-0.0368 -0.0232,-0.008 -0.15095,0 -0.18414,0 -0.0123,0 -0.0282,0.009 -0.0368,0 -0.0184,-0.0184 0.0184,-0.0921 0,-0.11048 -0.009,-0.009 -0.0246,0 -0.0368,0 -0.0246,0 -0.0517,-0.011 -0.0737,0 -0.011,0.006 0,0.0246 0,0.0368 0,0.0123 0,0.0246 0,0.0368 0,0.0166 -0.006,0.0993 0,0.11048 0.008,0.0155 0.0291,0.0213 0.0368,0.0368 0.005,0.0109 0,0.20548 0,0.22097 0,0.0174 -0.002,0.18248 0,0.18414 0.009,0.009 0.0282,-0.009 0.0368,0 0.0184,0.0184 -0.0184,0.0921 0,0.11049 0.0174,0.0174 0.0627,-0.022 0.0737,0 0.011,0.022 -0.011,0.0517 0,0.0737 0.005,0.011 0.0281,-0.009 0.0368,0 0.009,0.009 -0.009,0.0281 0,0.0368 0.009,0.009 0.0281,-0.009 0.0368,0 0.0123,0.0123 -0.0123,0.0614 0,0.0737 0.0762,0.0762 -0.003,-0.11644 0.0737,0.0368 0.011,0.022 -0.022,0.0627 0,0.0737 0.022,0.011 0.0517,-0.011 0.0737,0 0.011,0.005 -0.009,0.0282 0,0.0368 0.009,0.009 0.0246,0 0.0368,0 0,0.0245 -0.011,0.0517 0,0.0737 0.005,0.011 0.0282,-0.009 0.0368,0 0.008,0.008 -0.007,0.12701 0,0.14731 0.0423,0.12696 0.0368,0.0273 0.0368,0.11049 0,0.0246 0,0.0491 0,0.0737 0,0.0123 -0.009,0.0282 0,0.0368 0.009,0.009 0.0313,-0.011 0.0368,0 0.011,0.022 0,0.0491 0,0.0737 0,0.0123 -0.009,0.0282 0,0.0368 0.009,0.009 0.0282,-0.009 0.0368,0 0.0174,0.0174 -0.011,0.0517 0,0.0737 0.008,0.0155 0.0291,0.0213 0.0368,0.0368 0.005,0.011 -0.009,0.0282 0,0.0368 0.009,0.009 0.0282,0.009 0.0368,0 0.009,-0.009 -0.009,-0.0282 0,-0.0368 0.0184,-0.0184 0.0921,0.0184 0.11048,0 0.0388,-0.0388 0.028,-0.11686 0.0737,-0.14731 0.0204,-0.0136 0.0491,0 0.0737,0 0.14731,0 -0.0614,0.0123 0.0368,-0.0368 0.022,-0.011 0.0517,0.011 0.0737,0 0.011,-0.005 -0.005,-0.0258 0,-0.0368 0.008,-0.0155 0.0213,-0.0291 0.0368,-0.0368 0.011,-0.005 0.0281,0.009 0.0368,0 0.009,-0.009 -0.009,-0.0282 0,-0.0368 0.009,-0.009 0.0281,0.009 0.0368,0 0.009,-0.009 -0.005,-0.0258 0,-0.0368 0.008,-0.0155 0.0272,-0.0224 0.0368,-0.0368 0.0152,-0.0228 0.0216,-0.0508 0.0368,-0.0737 0.0193,-0.0289 0.0581,-0.0426 0.0737,-0.0737 0.005,-0.011 -0.005,-0.0258 0,-0.0368 0.008,-0.0155 0.0291,-0.0213 0.0368,-0.0368 0.011,-0.022 -0.0174,-0.0563 0,-0.0737 0.009,-0.009 0.0246,0 0.0368,0 0.0123,-0.0246 0.0281,-0.0476 0.0368,-0.0737 0.008,-0.0253 -0.0109,-0.0888 0,-0.11049 0.008,-0.0155 0.0291,-0.0213 0.0368,-0.0368 0.005,-0.011 -0.009,-0.0281 0,-0.0368 0.009,-0.009 0.0282,0.009 0.0368,0 0.009,-0.009 -0.009,-0.0282 0,-0.0368 0.009,-0.009 0.0281,0.009 0.0368,0 0.0174,-0.0174 -0.0174,-0.0563 0,-0.0737 0.009,-0.009 0.0282,0.009 0.0368,0 0.009,-0.009 -0.009,-0.0282 0,-0.0368 0.009,-0.009 0.0246,0 0.0368,0 0.0245,-0.0614 0.0491,-0.12276 0.0736,-0.18414 z"
         style="fill:#ffffff;stroke:#000000;stroke-width:0.1;stroke-linecap:butt;stroke-linejoin:miter;stroke-miterlimit:4;stroke-opacity:1;stroke-dasharray:none" />
      <path
         inkscape:connector-curvature="0"
         id="path4913"
         d="m 134.01883,35.766861 c 0,-0.15959 0,-0.31918 0,-0.47877 0,-0.02455 0,-0.04911 0,-0.07366 0,-0.01228 -0.004,-0.02518 0,-0.03683 0.009,-0.02604 0.0302,-0.04703 0.0368,-0.07366 0.004,-0.01794 -0.01,-0.12784 0,-0.147314 0.008,-0.01553 0.0291,-0.0213 0.0368,-0.03683 0.005,-0.0095 0,-0.194866 0,-0.220971 0,-0.01228 -0.005,-0.02585 0,-0.03683 0.008,-0.01553 0.0291,-0.0213 0.0368,-0.03683 0.006,-0.01174 0,-0.151228 0,-0.184142 0,-0.101985 0.0368,0.02833 0.0368,-0.07366 0,-0.01228 0.0123,-0.03683 0,-0.03683 -0.0174,0 -0.0224,0.0272 -0.0368,0.03683 -0.0336,0.02243 -0.0894,0.03144 -0.11049,0.07366 -0.005,0.01098 0.009,0.02815 0,0.03683 -0.0184,0.01841 -0.0921,-0.01842 -0.11048,0 -0.0194,0.01941 -0.0174,0.05425 -0.0368,0.07366 -0.009,0.0087 -0.0258,-0.0055 -0.0368,0 -0.0155,0.0078 -0.0224,0.0272 -0.0368,0.03683 -0.061,0.04068 -0.0836,0.03683 -0.14731,0.03683 -0.0246,0 -0.0517,-0.01098 -0.0737,0 -0.011,0.0055 0.009,0.02815 0,0.03683 -0.0174,0.01736 -0.0517,-0.01098 -0.0737,0 -0.0155,0.0078 -0.0213,0.02906 -0.0368,0.03683 -0.011,0.0055 -0.0249,-0.003 -0.0368,0 -0.0377,0.0094 -0.0758,0.01947 -0.11049,0.03683 -0.0155,0.0078 -0.0213,0.02906 -0.0368,0.03683 -0.011,0.0055 -0.0252,-0.0039 -0.0368,0 -0.026,0.0087 -0.0476,0.02815 -0.0736,0.03683 -0.0117,0.0039 -0.0282,-0.0087 -0.0368,0 -0.0123,0.02455 -0.0246,0.0491 -0.0368,0.07366 -0.0123,0 -0.0281,-0.0087 -0.0368,0 -0.0174,0.01736 0.022,0.06268 0,0.07366 -0.022,0.01098 -0.0517,-0.01098 -0.0737,0 -0.011,0.0055 0.005,0.02585 0,0.03683 -0.0407,0.08143 -0.0229,0.01143 -0.0737,0.03683 -0.0155,0.0078 -0.0246,0.02455 -0.0368,0.03683 0,0.01228 0.011,0.03134 0,0.03683 -0.022,0.01098 -0.0517,-0.01098 -0.0737,0 -0.011,0.0055 0.009,0.02815 0,0.03683 -0.0194,0.01941 -0.0542,0.01742 -0.0737,0.03683 -0.009,0.0087 0.0246,0 0.0368,0 0.0246,0 0.0498,-0.006 0.0737,0 0.0377,0.0094 0.0722,0.03045 0.11049,0.03683 0.0363,0.0061 0.0737,0 0.11048,0 0.0123,0 0.0252,-0.0039 0.0368,0 0.026,0.0087 0.0476,0.02815 0.0737,0.03683 0.0116,0.0039 0.0266,-0.0068 0.0368,0 0.0289,0.01926 0.0448,0.0544 0.0737,0.07366 0.0102,0.0068 0.0258,-0.0055 0.0368,0 0.0155,0.0078 0.0224,0.0272 0.0368,0.03683 0.0228,0.01523 0.0542,0.01742 0.0737,0.03683 0.009,0.0087 -0.009,0.02815 0,0.03683 0.0174,0.01736 0.0563,-0.01736 0.0737,0 0.009,0.0087 -0.009,0.02815 0,0.03683 0.009,0.0087 0.0252,-0.0039 0.0368,0 0.026,0.0087 0.0476,0.02815 0.0737,0.03683 0.0233,0.0078 0.0563,-0.01736 0.0737,0 0.009,0.0087 -0.009,0.02815 0,0.03683 0.0174,0.01736 0.0517,-0.01098 0.0737,0 0.0155,0.0078 0.0213,0.02907 0.0368,0.03683 0.0368,0.01841 0.0737,-0.03683 0.11049,0 0.0506,0.05062 0.0736,0.122761 0.11048,0.184142 z"
         style="fill:#ffffff;stroke:#000000;stroke-width:0.1;stroke-linecap:butt;stroke-linejoin:miter;stroke-opacity:1;stroke-miterlimit:4;stroke-dasharray:none" />
      <path
         inkscape:connector-curvature="0"
         id="path4915"
         d="m 136.96511,34.58835 c -0.17361,0.01053 0.0434,-0.14074 0,-0.184142 -0.0194,-0.01941 -0.0542,-0.01742 -0.0737,-0.03683 -0.009,-0.0087 0,-0.02455 0,-0.03683 0,-0.02455 0.011,-0.0517 0,-0.07366 -0.005,-0.01098 -0.0258,0.0055 -0.0368,0 -0.0155,-0.0078 -0.0291,-0.0213 -0.0368,-0.03683 -0.007,-0.0146 0.008,-0.102956 0,-0.110485 -0.009,-0.0087 -0.0282,0.0087 -0.0368,0 -0.0194,-0.01941 -0.0216,-0.05082 -0.0368,-0.07366 -0.01,-0.01445 -0.0291,-0.0213 -0.0368,-0.03683 -0.005,-0.01098 0.009,-0.02815 0,-0.03683 -0.009,-0.0087 -0.0282,0.0087 -0.0368,0 -0.009,-0.0087 0,-0.02455 0,-0.03683 0,-0.02455 0.011,-0.0517 0,-0.07366 -0.005,-0.01098 -0.0313,0.01098 -0.0368,0 0,-0.208694 0.0246,-0.01228 -0.0368,-0.07366 -0.0174,-0.01736 0.0174,-0.05629 0,-0.07366 -0.009,-0.0087 -0.0282,0.0087 -0.0368,0 -0.009,-0.0087 0,-0.02455 0,-0.03683 0,-0.01228 0,-0.02455 0,-0.03683 0,-0.220971 0,-0.441942 0,-0.662913 0,-0.08593 0,-0.171866 0,-0.257799 0,-0.01228 0,-0.02455 0,-0.03683 0,-0.01228 0.0123,-0.03683 0,-0.03683 -0.0174,0 -0.0213,0.02906 -0.0368,0.03683 -0.011,0.0055 -0.0281,-0.0087 -0.0368,0 -0.009,0.0089 0.009,0.138452 0,0.147314 -0.0194,0.01941 -0.0543,0.01742 -0.0737,0.03683 -0.0184,0.01841 0.0184,0.09207 0,0.110485 -0.009,0.0087 -0.0281,-0.0087 -0.0368,0 -0.008,0.0075 0.007,0.09588 0,0.110485 -0.0455,0.09102 -0.0368,-0.01271 -0.0368,0.07366 0,0.09821 0.0123,-0.01228 -0.0368,0.03683 -0.0174,0.01736 0.011,0.0517 0,0.07366 -0.0766,0.153271 0.003,-0.03937 -0.0737,0.03683 -0.009,0.0089 0.009,0.138452 0,0.147314 -0.009,0.0087 -0.0282,-0.0087 -0.0368,0 -0.005,0.0052 -0.004,0.102931 0,0.110486 0.008,0.01553 0.0246,0.02455 0.0368,0.03683 0.0245,0.02455 0.0544,0.04477 0.0737,0.07366 0.007,0.01021 -0.005,0.02585 0,0.03683 0.008,0.01553 0.0291,0.0213 0.0368,0.03683 0.011,0.02196 -0.0174,0.0563 0,0.07366 0.0174,0.01736 0.0517,-0.01098 0.0736,0 0.15327,0.07664 -0.0394,-0.0025 0.0368,0.07366 0.0174,0.01736 0.0563,-0.01736 0.0737,0 0.009,0.0087 -0.009,0.02815 0,0.03683 0.009,0.0087 0.0282,-0.0087 0.0368,0 0.0123,0.01226 -0.0123,0.0614 0,0.07366 0.009,0.0087 0.0282,-0.0087 0.0368,0 0.0184,0.01841 -0.0184,0.09207 0,0.110486 0.009,0.0087 0.0281,-0.0087 0.0368,0 0.009,0.0087 -0.009,0.02815 0,0.03683 0.009,0.0087 0.0313,-0.01098 0.0368,0 0.011,0.02196 0,0.0491 0,0.07366 0,0.01228 -0.009,0.02815 0,0.03683 0.009,0.0087 0.0246,0 0.0368,0 0,0.01228 -0.009,0.02815 0,0.03683 0.009,0.0087 0.0313,-0.01098 0.0368,0 0.011,0.02196 -0.011,0.0517 0,0.07366 0.005,0.01098 0.0329,-0.01165 0.0368,0 0.0155,0.04659 0,0.09821 0,0.147314 0,0.01228 0,0.02455 0,0.03683 0,0.01228 -0.012,0.03442 0,0.03683 0.0602,0.01204 0.12276,0 0.18414,0 z"
         style="fill:#ffffff;stroke:#000000;stroke-width:0.1;stroke-linecap:butt;stroke-linejoin:miter;stroke-opacity:1;stroke-miterlimit:4;stroke-dasharray:none" />
      <path
         inkscape:connector-curvature="0"
         id="path4917"
         d="m 131.36718,33.999094 c 0,-0.122761 0,-0.245523 0,-0.368284 0,-0.03683 -0.0116,-0.07555 0,-0.110486 0.005,-0.01647 0.0291,-0.0213 0.0368,-0.03683 0.0147,-0.02946 -0.0147,-0.08102 0,-0.110486 0.005,-0.01098 0.0282,0.0087 0.0368,0 0.009,-0.0087 0,-0.02455 0,-0.03683 0,-0.02455 -0.011,-0.0517 0,-0.07366 0.005,-0.01098 0.0281,0.0087 0.0368,0 0.009,-0.0087 -0.004,-0.02518 0,-0.03683 0.009,-0.02604 0.0282,-0.04762 0.0368,-0.07366 0.007,-0.02202 -0.007,-0.05164 0,-0.07366 0.009,-0.02604 0.0281,-0.04762 0.0368,-0.07366 0.004,-0.01165 -0.005,-0.02585 0,-0.03683 0.008,-0.01553 0.0291,-0.0213 0.0368,-0.03683 0.0147,-0.02946 -0.0147,-0.08102 0,-0.110485 0.008,-0.01553 0.0291,-0.0213 0.0368,-0.03683 0.01,-0.01998 -0.0101,-0.137237 0,-0.147314 0.009,-0.0087 0.0313,0.01098 0.0368,0 0.011,-0.02196 0,-0.0491 0,-0.07366 0,-0.01228 -0.009,-0.02815 0,-0.03683 0.009,-0.0087 0.0282,0.0087 0.0368,0 0.008,-0.0075 -0.007,-0.09588 0,-0.110485 0.0455,-0.09102 0.0368,0.01271 0.0368,-0.07366 0,-0.0089 -0.001,-0.109301 0,-0.110486 0.009,-0.0087 0.0313,0.01098 0.0368,0 0.011,-0.02196 0,-0.0491 0,-0.07366 0,-0.01228 -0.009,-0.02815 0,-0.03683 0.009,-0.0087 0.0281,0.0087 0.0368,0 0.009,-0.0087 0.009,-0.02815 0,-0.03683 -0.009,-0.0087 -0.0246,0 -0.0368,0 -0.0123,0 -0.0282,-0.0087 -0.0368,0 -0.009,0.0087 0.009,0.02815 0,0.03683 -0.009,0.0087 -0.0258,-0.0055 -0.0368,0 -0.0155,0.0078 -0.0213,0.02906 -0.0368,0.03683 -0.0112,0.0056 -0.0939,0 -0.11049,0 -0.009,0 -0.1093,-0.0012 -0.11048,0 -0.009,0.0087 0.009,0.02815 0,0.03683 -0.009,0.0087 -0.0246,0 -0.0368,0 -0.0368,0 -0.0737,0 -0.11048,0 -0.0123,0 -0.0252,-0.0039 -0.0368,0 -0.026,0.0087 -0.0476,0.02815 -0.0737,0.03683 -0.0253,0.0084 -0.0888,-0.01086 -0.11049,0 -0.15327,0.07664 0.0394,-0.0025 -0.0368,0.07366 -0.0184,0.01842 -0.0921,-0.01841 -0.11049,0 -0.009,0.0087 0.009,0.02815 0,0.03683 -0.006,0.0057 -0.0961,-0.0048 -0.11049,0 -0.0246,0.01228 -0.0491,0.02455 -0.0737,0.03683 0,0.01228 0.009,0.02815 0,0.03683 -0.0174,0.01736 -0.0517,-0.01098 -0.0737,0 -0.0155,0.0078 -0.0213,0.02906 -0.0368,0.03683 -0.022,0.01098 -0.0517,-0.01098 -0.0736,0 -0.0155,0.0078 -0.0213,0.02907 -0.0368,0.03683 -0.011,0.0055 -0.0281,-0.0087 -0.0368,0 -0.009,0.0087 0,0.02455 0,0.03683 0,0.01228 -0.005,0.02585 0,0.03683 0.008,0.01553 0.0291,0.0213 0.0368,0.03683 0.005,0.01098 -0.005,0.02585 0,0.03683 0.008,0.01553 0.0291,0.0213 0.0368,0.03683 0.005,0.01098 -0.009,0.02815 0,0.03683 0.0762,0.0762 -0.003,-0.116443 0.0736,0.03683 0.0542,0.108379 -0.0853,-0.04849 0.0368,0.07366 0.0123,0.01228 0.0291,0.0213 0.0368,0.03683 0.01,0.01961 -0.01,0.05404 0,0.07366 0.0224,0.04475 0.0513,0.02891 0.0737,0.07366 0.005,0.01098 -0.009,0.02815 0,0.03683 0.009,0.0087 0.0281,-0.0087 0.0368,0 0.0123,0.01226 -0.0122,0.0614 0,0.07366 0.009,0.0087 0.0313,-0.01098 0.0368,0 0.011,0.02196 -0.008,0.05036 0,0.07366 0.005,0.01647 0.0291,0.0213 0.0368,0.03683 0.011,0.02196 -0.0174,0.0563 0,0.07366 0.009,0.0087 0.0282,-0.0087 0.0368,0 0.009,0.0087 0,0.02455 0,0.03683 0,0.02455 -0.011,0.0517 0,0.07366 0.0155,0.03106 0.0544,0.04477 0.0737,0.07366 0.007,0.01021 -0.005,0.02585 0,0.03683 0.12214,0.122145 -0.0174,-0.03472 0.0368,0.07366 0.0155,0.03106 0.0581,0.0426 0.0736,0.07366 0.005,0.01098 -0.009,0.02815 0,0.03683 0.0184,0.01841 0.0921,-0.01842 0.11049,0 0.009,0.0087 -0.009,0.02815 0,0.03683 0.009,0.0087 0.0282,-0.0087 0.0368,0 0.009,0.0087 -0.009,0.02815 0,0.03683 0.009,0.0087 0.0281,-0.0087 0.0368,0 0.009,0.0087 -0.009,0.02815 0,0.03683 0.009,0.0087 0.0246,0 0.0368,0 0.0123,0.06138 0.0246,0.122762 0.0368,0.184142 z"
         style="fill:#ffffff;stroke:#000000;stroke-width:0.1;stroke-linecap:butt;stroke-linejoin:miter;stroke-opacity:1;stroke-miterlimit:4;stroke-dasharray:none" />
      <path
         inkscape:connector-curvature="0"
         id="path4919"
         d="m 136.41268,31.568415 c -0.0491,0.03683 -0.0947,0.0789 -0.14731,0.110485 -0.005,0.0032 -0.21062,0 -0.22097,0 -0.0123,0 -0.0281,-0.0087 -0.0368,0 -0.0491,0.04911 0.0614,0.03683 -0.0368,0.03683 -0.0737,0 -0.14731,0 -0.22097,0 -0.0166,0 -0.0993,-0.0056 -0.11048,0 -0.0155,0.0078 -0.0213,0.02906 -0.0368,0.03683 -0.0157,0.0079 -0.16959,0 -0.18415,0 -0.13503,0 -0.27007,0 -0.40511,0 -0.0368,0 -0.0737,0 -0.11048,0 -0.0123,0 -0.0368,0.01228 -0.0368,0 0,-0.01228 0.0246,0 0.0368,0 0.0166,0 0.0993,-0.0056 0.11048,0 0.0155,0.0078 0.0213,0.02906 0.0368,0.03683 0.011,0.0055 0.0282,-0.0087 0.0368,0 0.0174,0.01736 -0.011,0.0517 0,0.07366 0.008,0.01553 0.0313,0.02036 0.0368,0.03683 0.007,0.02037 0,0.183883 0,0.220971 0,0.01228 -0.009,0.02815 0,0.03683 0.009,0.0087 0.0281,-0.0087 0.0368,0 0.0174,0.01736 -0.011,0.0517 0,0.07366 0.008,0.01553 0.0291,0.0213 0.0368,0.03683 0.0127,0.02544 -0.0129,0.171215 0,0.184142 0.009,0.0087 0.0282,-0.0087 0.0368,0 0.0184,0.01841 -0.0184,0.09207 0,0.110486 0.009,0.0087 0.0281,-0.0087 0.0368,0 0.0123,0.01226 -0.0123,0.0614 0,0.07366 0.009,0.0087 0.0282,-0.0087 0.0368,0 0.009,0.0087 -0.009,0.02815 0,0.03683 0.009,0.0087 0.0282,-0.0087 0.0368,0 0.009,0.0087 -0.009,0.02815 0,0.03683 0.009,0.0087 0.0281,-0.0087 0.0368,0 0.0194,0.01941 0.0216,0.05082 0.0368,0.07366 0.01,0.01445 0.0291,0.0213 0.0368,0.03683 0.011,0.02196 -0.022,0.06268 0,0.07366 0.022,0.01098 0.0517,0.01098 0.0737,0 0.011,-0.0055 0,-0.02455 0,-0.03683 0,-0.01228 0,-0.02455 0,-0.03683 0,-0.167654 -0.0174,-0.0021 0.0368,-0.110485 0.005,-0.01098 -0.005,-0.02585 0,-0.03683 0.008,-0.01553 0.0291,-0.0213 0.0368,-0.03683 0.005,-0.01098 -0.009,-0.02815 0,-0.03683 0.009,-0.0087 0.0252,0.0039 0.0368,0 0.0269,-0.009 0.0936,-0.03995 0.11048,-0.07366 0.011,-0.02196 -0.0174,-0.0563 0,-0.07366 0.009,-0.0087 0.0258,0.0055 0.0368,0 0.0155,-0.0078 0.0246,-0.02455 0.0368,-0.03683 0.0123,-0.01228 0.0291,-0.0213 0.0368,-0.03683 0.011,-0.02196 -0.0174,-0.0563 0,-0.07366 0.009,-0.0087 0.0281,0.0087 0.0368,0 0.0174,-0.01736 -0.011,-0.0517 0,-0.07366 0.0766,-0.153271 -0.003,0.03937 0.0737,-0.03683 0.009,-0.0087 -0.009,-0.02815 0,-0.03683 0.009,-0.0087 0.0281,0.0087 0.0368,0 0.0123,-0.01226 -0.0123,-0.0614 0,-0.07366 0.009,-0.0087 0.0282,0.0087 0.0368,0 0.009,-0.0087 -0.009,-0.02815 0,-0.03683 0.009,-0.0087 0.0282,0.0087 0.0368,0 0.0174,-0.01736 -0.011,-0.0517 0,-0.07366 0.008,-0.01553 0.0291,-0.0213 0.0368,-0.03683 0.011,-0.02196 -0.0174,-0.0563 0,-0.07366 0.009,-0.0087 0.0281,0.0087 0.0368,0 0.009,-0.0087 -0.009,-0.02815 0,-0.03683 0.0762,-0.0762 -0.003,0.116443 0.0737,-0.03683 0.005,-0.01098 -0.009,-0.02815 0,-0.03683 0.009,-0.0087 0.0281,0.0087 0.0368,0 0.009,-0.0087 -0.008,-0.02724 0,-0.03683 0.0434,-0.05423 0.0982,-0.09821 0.14731,-0.147314 z"
         style="fill:#ffffff;stroke:#000000;stroke-width:0.1;stroke-linecap:butt;stroke-linejoin:miter;stroke-opacity:1;stroke-miterlimit:4;stroke-dasharray:none" />
    </g>
    <path
       style="fill:#ffffff;stroke:#000000;stroke-width:0.4909091;stroke-miterlimit:4;stroke-opacity:1;stroke-dasharray:none"
       d="m 146.66667,19.166666 a 6.6666665,6.6666665 0 1 1 -13.33334,0 6.6666665,6.6666665 0 1 1 13.33334,0 z"
       sodipodi:ry="6.6666665"
       sodipodi:rx="6.6666665"
       sodipodi:cy="19.166666"
       sodipodi:cx="140"
       id="path3055-2"
       sodipodi:type="arc"
       transform="matrix(0.78164838,0,0,0.3916525,26.077423,21.555871)" />
    <rect
       style="fill:#ffffff;fill-opacity:1;stroke:#000000;stroke-width:0.97578877;stroke-linecap:butt;stroke-linejoin:bevel;stroke-miterlimit:4;stroke-opacity:1;stroke-dasharray:none;stroke-dashoffset:0"
       id="rect4931"
       width="61.666668"
       height="57.92329"
       x="295"
       y="1.666666" />
    <circle id="ball" r="4.5833335" cx="300" cy="32.083332" fill="#0099CC"/>
         
         <animate 
           xlink:href="#ball"
           attributeName="cx"
           from="300"
           to="352" 
           dur="5s"
           begin="click+2s"
           id="move"
         repeatCount="indefinite"/>
     
      
      
 
  

         
         
  
    <script type="text/ecmascript"><![CDATA[
    frame = 130;
      
    function doOneStep() {
	ciel = document.getElementById("ciel");
	ciel.setAttribute("opacity", (100-frame)/100);
        sol = document.getElementById("sol");
	sol.setAttribute("opacity", (100-frame)/100);
        monstre = document.getElementById("monstre");
	monstre.setAttribute("opacity", (100-frame)/100);
        
        if (frame-- >= 0){
            setTimeout(doOneStep,25);
        }
    }
    doOneStep();
    ]]>
    </script>
</svg>
