<?xml version="1.0" encoding="UTF-8" standalone="no"?>
<!-- Created with Inkscape (http://www.inkscape.org/) -->

<svg
   xmlns:dc="http://purl.org/dc/elements/1.1/"
   xmlns:cc="http://creativecommons.org/ns#"
   xmlns:rdf="http://www.w3.org/1999/02/22-rdf-syntax-ns#"
   xmlns:svg="http://www.w3.org/2000/svg"
   xmlns="http://www.w3.org/2000/svg"
   xmlns:sodipodi="http://sodipodi.sourceforge.net/DTD/sodipodi-0.dtd"
   xmlns:inkscape="http://www.inkscape.org/namespaces/inkscape"
   width="64px"
   height="64px"
   id="svg5117"
   version="1.1"
   inkscape:version="0.48.5 r10040"
   sodipodi:docname="New document 23">
  <defs
     id="defs5119" />
  <sodipodi:namedview
     id="base"
     pagecolor="#ffffff"
     bordercolor="#666666"
     borderopacity="1.0"
     inkscape:pageopacity="0.0"
     inkscape:pageshadow="2"
     inkscape:zoom="1.9445436"
     inkscape:cx="20.46992"
     inkscape:cy="43.364633"
     inkscape:current-layer="layer1"
     showgrid="true"
     inkscape:document-units="px"
     inkscape:grid-bbox="true"
     inkscape:window-width="463"
     inkscape:window-height="401"
     inkscape:window-x="125"
     inkscape:window-y="125"
     inkscape:window-maximized="0" />
  <metadata
     id="metadata5122">
    <rdf:RDF>
      <cc:Work
         rdf:about="">
        <dc:format>image/svg+xml</dc:format>
        <dc:type
           rdf:resource="http://purl.org/dc/dcmitype/StillImage" />
        <dc:title></dc:title>
      </cc:Work>
    </rdf:RDF>
  </metadata>
  <g
     id="layer1"
     inkscape:label="Layer 1"
     inkscape:groupmode="layer">
    <rect
       y="33.74165"
       x="-0.58245343"
       height="27.500002"
       width="64.166664"
       id="sol-3"
       style="fill:#00ff00"
       inkscape:label="#rect3053" />
    <rect
       y="1.4499893"
       x="-0.58245343"
       height="43.125004"
       width="64.166664"
       id="ciel-8"
       style="fill:#0000ff"
       inkscape:label="#rect3053-4" />
    <path
       style="fill:#ffffff;fill-opacity:1;stroke:#000000;stroke-width:0.9999637;stroke-miterlimit:4;stroke-opacity:1;stroke-dasharray:none"
       d="m 146.66667,19.166666 a 6.6666665,6.6666665 0 1 1 -13.33334,0 6.6666665,6.6666665 0 1 1 13.33334,0 z"
       sodipodi:ry="6.6666665"
       sodipodi:rx="6.6666665"
       sodipodi:cy="19.166666"
       sodipodi:cx="140"
       id="path3055-9-4-6"
       sodipodi:type="arc"
       transform="matrix(0.40191439,-0.2092536,0.39686029,0.76225145,-31.748621,63.427331)"
       inkscape:transform-center-x="3.7655357" />
    <path
       style="fill:#ffffff;stroke:#000000;stroke-width:0.32730168;stroke-miterlimit:4;stroke-opacity:1;stroke-dasharray:none"
       d="m 146.66667,19.166666 a 6.6666665,6.6666665 0 1 1 -13.33334,0 6.6666665,6.6666665 0 1 1 13.33334,0 z"
       sodipodi:ry="6.6666665"
       sodipodi:rx="6.6666665"
       sodipodi:cy="19.166666"
       sodipodi:cx="140"
       id="path3055-0-9"
       sodipodi:type="arc"
       transform="matrix(2.234375,0,0,1.9375,-292.87411,2.8562313)" />
    <path
       style="fill:#ffffff;stroke:#000000;stroke-opacity:1"
       d="m 146.66667,19.166666 a 6.6666665,6.6666665 0 1 1 -13.33334,0 6.6666665,6.6666665 0 1 1 13.33334,0 z"
       sodipodi:ry="6.6666665"
       sodipodi:rx="6.6666665"
       sodipodi:cy="19.166666"
       sodipodi:cx="140"
       id="path3055-9-8-2-7-8"
       sodipodi:type="arc"
       transform="matrix(0.28928604,-0.16780062,0.14697397,1.1879824,-12.092811,16.339071)" />
    <path
       style="fill:#ffffff;stroke:#000000;stroke-width:0.4909091;stroke-miterlimit:4;stroke-opacity:1;stroke-dasharray:none"
       d="m 146.66667,19.166666 a 6.6666665,6.6666665 0 1 1 -13.33334,0 6.6666665,6.6666665 0 1 1 13.33334,0 z"
       sodipodi:ry="6.6666665"
       sodipodi:rx="6.6666665"
       sodipodi:cy="19.166666"
       sodipodi:cx="140"
       id="path3055-66"
       sodipodi:type="arc"
       transform="matrix(1.375,0,0,1.375,-159.95745,3.0124813)" />
    <path
       style="fill:#ffffff;stroke:#000000;stroke-opacity:1"
       d="m 146.66667,19.166666 a 6.6666665,6.6666665 0 1 1 -13.33334,0 6.6666665,6.6666665 0 1 1 13.33334,0 z"
       sodipodi:ry="6.6666665"
       sodipodi:rx="6.6666665"
       sodipodi:cy="19.166666"
       sodipodi:cx="140"
       id="path3055-9-2"
       sodipodi:type="arc"
       transform="matrix(0.40191439,-0.2092536,0.39686029,0.76225145,-35.186121,66.239831)" />
    <path
       style="fill:#ffffff;stroke:#000000;stroke-opacity:1"
       d="m 146.66667,19.166666 a 6.6666665,6.6666665 0 1 1 -13.33334,0 6.6666665,6.6666665 0 1 1 13.33334,0 z"
       sodipodi:ry="6.6666665"
       sodipodi:rx="6.6666665"
       sodipodi:cy="19.166666"
       sodipodi:cx="140"
       id="path3055-9-8-3"
       sodipodi:type="arc"
       transform="matrix(0.39541841,0.22128382,-0.41967622,0.74993149,-38.730571,5.8882213)" />
    <path
       style="fill:#ff8080;stroke:#000000;stroke-opacity:1"
       d="m 146.66667,19.166666 a 6.6666665,6.6666665 0 1 1 -13.33334,0 6.6666665,6.6666665 0 1 1 13.33334,0 z"
       sodipodi:ry="6.6666665"
       sodipodi:rx="6.6666665"
       sodipodi:cy="19.166666"
       sodipodi:cx="140"
       id="path3055-9-8-2-8"
       sodipodi:type="arc"
       transform="matrix(0.32126396,-0.16780062,0.1632206,1.1879824,-22.475271,18.720911)" />
    <path
       style="fill:#ff0000;stroke:#000000;stroke-width:0.4909091;stroke-miterlimit:4;stroke-opacity:1;stroke-dasharray:none"
       d="m 146.66667,19.166666 a 6.6666665,6.6666665 0 1 1 -13.33334,0 6.6666665,6.6666665 0 1 1 13.33334,0 z"
       sodipodi:ry="6.6666665"
       sodipodi:rx="6.6666665"
       sodipodi:cy="19.166666"
       sodipodi:cx="140"
       id="path3055-7-2"
       sodipodi:type="arc"
       transform="matrix(0.21406287,0,0,0.24531287,3.7195786,21.643981)" />
    <path
       style="fill:#ffffff;stroke:#000000;stroke-width:0.4909091;stroke-miterlimit:4;stroke-opacity:1;stroke-dasharray:none"
       d="m 146.66667,19.166666 a 6.6666665,6.6666665 0 1 1 -13.33334,0 6.6666665,6.6666665 0 1 1 13.33334,0 z"
       sodipodi:ry="6.6666665"
       sodipodi:rx="6.6666665"
       sodipodi:cy="19.166666"
       sodipodi:cx="140"
       id="path3055-2-9-6"
       sodipodi:type="arc"
       transform="matrix(0.78164838,0,0,0.3916525,-68.651091,24.038581)" />
    <path
       style="fill:#ffffff;stroke:#000000;stroke-width:0.1;stroke-linecap:butt;stroke-linejoin:miter;stroke-miterlimit:4;stroke-opacity:1;stroke-dasharray:none"
       d="m 43.210359,33.570821 c -0.47042,-0.13075 -0.0917,0.12856 -0.14731,0.18414 -0.009,0.009 -0.0313,-0.011 -0.0368,0 -0.022,0.0439 0.0119,0.0997 0,0.14732 -0.0133,0.0533 -0.0563,0.0952 -0.0737,0.14731 -0.008,0.0233 0.0174,0.0563 0,0.0737 -0.0174,0.0174 -0.0563,-0.0174 -0.0737,0 -0.009,0.009 0.0123,0.0368 0,0.0368 -0.0174,0 -0.0195,-0.0368 -0.0368,-0.0368 -0.0246,0 0.0174,0.0563 0,0.0737 -0.009,0.009 -0.0281,-0.009 -0.0368,0 -0.009,0.009 0.009,0.0282 0,0.0368 -0.0123,0.0123 -0.0614,-0.0123 -0.0737,0 -0.009,0.009 0,0.0246 0,0.0368 0,0.0123 0.0123,0.0368 0,0.0368 -0.0123,0 0,-0.0245 0,-0.0368 0,0.0245 0.0136,0.0532 0,0.0737 -0.0152,0.0228 -0.0542,0.0174 -0.0737,0.0368 -0.0174,0.0174 0.011,0.0517 0,0.0737 -0.008,0.0155 -0.0291,0.0213 -0.0368,0.0368 -0.005,0.011 0.009,0.0281 0,0.0368 -0.009,0.009 -0.0313,-0.011 -0.0368,0 -0.011,0.022 0.011,0.0517 0,0.0737 -0.005,0.011 -0.0282,-0.009 -0.0368,0 -0.008,0.007 0.007,0.0959 0,0.11049 -0.008,0.0155 -0.0291,0.0213 -0.0368,0.0368 -0.0116,0.0231 0.0116,0.12416 0,0.14731 -0.008,0.0155 -0.0291,0.0213 -0.0368,0.0368 -0.005,0.011 0.009,0.0282 0,0.0368 -0.009,0.009 -0.0282,-0.009 -0.0368,0 -0.009,0.009 0,0.0246 0,0.0368 0,0.0737 0,0.14731 0,0.22097 0,0.0123 0.009,0.0281 0,0.0368 -0.009,0.009 -0.0246,0 -0.0368,0 -0.11229,0 -4.9e-4,-0.0373 -0.0368,-0.0737 -0.0491,-0.0491 -0.0368,0.0614 -0.0368,-0.0368 0,-0.31918 0,-0.63836 0,-0.95754 0,-0.0982 0,-0.19642 0,-0.29463 0,-0.0123 0.009,-0.0281 0,-0.0368 -0.009,-0.009 -0.0282,0.009 -0.0368,0 -10e-4,-0.001 0,-0.10155 0,-0.11048 0,-0.0123 0,-0.0246 0,-0.0368 0,-0.0123 -0.0123,-0.0368 0,-0.0368 0.0123,0 -0.0123,0.0368 0,0.0368 0.0174,0 0.0213,-0.0291 0.0368,-0.0368 0.011,-0.005 0.0246,0 0.0368,0 0.0123,0 0.0246,0 0.0368,0 0.0614,0 0.12276,0 0.18415,0 0.0982,0 0.19641,0 0.29462,0 0.0193,0 0.13763,0.005 0.14732,0 0.064,-0.032 0.12276,-0.0737 0.18414,-0.11049 z"
       id="path4925-2"
       inkscape:connector-curvature="0" />
    <path
       style="fill:#ff0000;stroke:#000000;stroke-width:0.4909091;stroke-miterlimit:4;stroke-opacity:1;stroke-dasharray:none"
       d="m 146.66667,19.166666 a 6.6666665,6.6666665 0 1 1 -13.33334,0 6.6666665,6.6666665 0 1 1 13.33334,0 z"
       sodipodi:ry="6.6666665"
       sodipodi:rx="6.6666665"
       sodipodi:cy="19.166666"
       sodipodi:cx="140"
       id="path3055-6-4-7"
       sodipodi:type="arc"
       transform="matrix(0.51156061,0.03354821,-0.12288404,0.11770123,-28.636461,26.253611)"
       inkscape:transform-center-x="-1.0851436"
       inkscape:transform-center-y="-0.48968709" />
    <path
       style="fill:#ffffff;stroke:#000000;stroke-width:0.2;stroke-linecap:butt;stroke-linejoin:miter;stroke-miterlimit:4;stroke-opacity:1;stroke-dasharray:none"
       d="m 45.235919,32.134511 c 0,0.0737 0,0.14731 0,0.22097 0,0.0123 0.009,0.0282 0,0.0368 -0.009,0.009 -0.0246,0 -0.0368,0 -0.0123,0.0246 -0.0282,0.0476 -0.0368,0.0737 -0.004,0.0117 0.009,0.0282 0,0.0368 -0.009,0.009 -0.0313,-0.011 -0.0368,0 -0.0154,0.0307 0.0171,0.13017 0,0.14731 -0.0174,0.0174 -0.0491,0 -0.0737,0 0,0.0246 0.0174,0.0563 0,0.0737 -0.0174,0.0174 -0.0563,-0.0174 -0.0736,0 -0.0275,0.0275 -0.0153,0.0782 -0.0368,0.11049 -0.007,0.0102 -0.0282,-0.009 -0.0368,0 -0.009,0.009 0,0.0246 0,0.0368 -0.0245,0.0123 -0.0542,0.0174 -0.0737,0.0368 -0.009,0.009 0.005,0.0258 0,0.0368 -0.12214,0.12215 0.0174,-0.0347 -0.0368,0.0737 -0.0766,0.15327 0.003,-0.0394 -0.0736,0.0368 -0.0174,0.0174 0.011,0.0517 0,0.0737 -0.0155,0.0311 -0.0581,0.0426 -0.0737,0.0737 -0.005,0.011 0,0.0246 0,0.0368 -0.0123,0.0123 -0.0291,0.0213 -0.0368,0.0368 -0.005,0.011 0.009,0.0281 0,0.0368 -0.009,0.009 -0.0282,-0.009 -0.0368,0 -0.009,0.009 0.009,0.0282 0,0.0368 -0.009,0.009 -0.0281,-0.009 -0.0368,0 -0.009,0.009 0.005,0.0258 0,0.0368 -0.008,0.0155 -0.0313,0.0204 -0.0368,0.0368 -0.008,0.0233 0.011,0.0517 0,0.0737 -0.005,0.011 -0.0282,-0.009 -0.0368,0 -0.0123,0.0123 0.0123,0.0614 0,0.0737 -0.009,0.009 -0.0282,-0.009 -0.0368,0 -0.0101,0.0101 0.01,0.12734 0,0.14731 -0.008,0.0155 -0.0291,0.0213 -0.0368,0.0368 -0.0147,0.0295 0.0147,0.081 0,0.11049 -0.008,0.0155 -0.0291,0.0213 -0.0368,0.0368 -0.011,0.022 0.011,0.0517 0,0.0737 -0.008,0.0155 -0.0291,0.0213 -0.0368,0.0368 -0.011,0.022 0.0174,0.0563 0,0.0737 -0.009,0.009 -0.0281,-0.009 -0.0368,0 -0.009,0.009 0,0.0246 0,0.0368 0,0.0501 0.0198,0.11898 -0.0368,0.14731 -0.0361,0.0181 -0.0537,-0.0169 -0.0737,-0.0368 -0.0659,-0.0659 -0.15372,-0.12971 -0.18414,-0.22097 -0.004,-0.0117 0,-0.0246 0,-0.0368 0,-0.0864 0.009,0.0174 -0.0368,-0.0737 -0.005,-0.011 0.005,-0.0258 0,-0.0368 -0.008,-0.0155 -0.0313,-0.0204 -0.0368,-0.0368 -0.008,-0.0233 0.011,-0.0517 0,-0.0737 -0.005,-0.011 -0.0246,0 -0.0368,0 -0.0123,-0.0246 -0.0282,-0.0476 -0.0368,-0.0737 -0.005,-0.0143 0.006,-0.10477 0,-0.11048 -0.009,-0.009 -0.0281,0.009 -0.0368,0 -0.008,-0.007 0.007,-0.0959 0,-0.11049 -0.0155,-0.0311 -0.0581,-0.0426 -0.0736,-0.0737 -0.011,-0.022 0.0174,-0.0563 0,-0.0737 -0.009,-0.009 -0.0282,0.009 -0.0368,0 -0.0174,-0.0174 0.011,-0.0517 0,-0.0737 -0.008,-0.0155 -0.0291,-0.0213 -0.0368,-0.0368 -0.011,-0.022 0.0174,-0.0563 0,-0.0737 -0.18046,-0.0902 -0.0308,0.012 -0.0737,-0.0737 -0.008,-0.0155 -0.0313,-0.0204 -0.0368,-0.0368 -0.008,-0.0233 0.011,-0.0517 0,-0.0737 -0.005,-0.011 -0.0281,0.009 -0.0368,0 -0.009,-0.009 0.005,-0.0258 0,-0.0368 -0.008,-0.0155 -0.0291,-0.0213 -0.0368,-0.0368 -0.005,-0.011 0.009,-0.0282 0,-0.0368 -0.009,-0.009 -0.0282,0.009 -0.0368,0 -0.009,-0.009 0.009,-0.0281 0,-0.0368 -0.009,-0.009 -0.0281,0.009 -0.0368,0 -0.009,-0.009 0.009,-0.0282 0,-0.0368 -0.009,-0.009 -0.0282,0.009 -0.0368,0 -0.009,-0.009 0,-0.0246 0,-0.0368 0,-0.0737 0,-0.14731 0,-0.22097 0.0611,0.0246 0.11877,0.0607 0.18333,0.0737 0.012,0.002 -0.005,-0.0259 0,-0.0368 0.008,-0.0155 0.0213,-0.0291 0.0368,-0.0368 0.011,-0.005 0.0246,0 0.0368,0 0.0123,0 0.0246,0 0.0368,0 0.0737,0 0.14731,0 0.22097,0 0.0123,0 0.0281,0.009 0.0368,0 0.0194,-0.0194 0.0174,-0.0542 0.0368,-0.0737 0.009,-0.009 0.0259,0.005 0.0368,0 0.0155,-0.008 0.0213,-0.0291 0.0368,-0.0368 0.022,-0.011 0.0627,0.022 0.0736,0 0.011,-0.022 -0.011,-0.0517 0,-0.0737 0.002,-0.004 0.12213,0.008 0.14732,0 0.026,-0.009 0.0476,-0.0282 0.0736,-0.0368 0.0117,-0.004 0.0246,0 0.0368,0 0.0246,0 0.0491,0 0.0737,0 0.0614,0 0.12276,0 0.18414,0 0.0278,0 0.13297,0.006 0.14731,0 0.0411,-0.0164 0.0709,-0.0539 0.11049,-0.0737 0.0231,-0.0116 0.12417,0.0116 0.14731,0 0.0155,-0.008 0.0204,-0.0313 0.0368,-0.0368 0.0594,-0.0198 0.12276,-0.0246 0.18414,-0.0368 z"
       id="path4893-5"
       inkscape:connector-curvature="0" />
    <path
       style="fill:#ffffff;stroke:#000000;stroke-width:0.4909091;stroke-miterlimit:4;stroke-opacity:1;stroke-dasharray:none"
       d="m 146.66667,19.166666 a 6.6666665,6.6666665 0 1 1 -13.33334,0 6.6666665,6.6666665 0 1 1 13.33334,0 z"
       sodipodi:ry="6.6666665"
       sodipodi:rx="6.6666665"
       sodipodi:cy="19.166666"
       sodipodi:cx="140"
       id="path3055-6-0-7"
       sodipodi:type="arc"
       transform="matrix(0.56749719,0.51402659,-0.26880785,0.24277785,-35.376921,-40.918324)"
       inkscape:transform-center-x="-1.7946499"
       inkscape:transform-center-y="-0.54300381" />
    <path
       style="fill:#ff0000;stroke:#000000;stroke-width:0.4909091;stroke-miterlimit:4;stroke-opacity:1;stroke-dasharray:none"
       d="m 146.66667,19.166666 a 6.6666665,6.6666665 0 1 1 -13.33334,0 6.6666665,6.6666665 0 1 1 13.33334,0 z"
       sodipodi:ry="6.6666665"
       sodipodi:rx="6.6666665"
       sodipodi:cy="19.166666"
       sodipodi:cx="140"
       id="path3055-6-8"
       sodipodi:type="arc"
       transform="matrix(0.39474604,0.29517967,-0.2187245,0.15463154,-12.226431,-9.6558192)"
       inkscape:transform-center-x="-1.3899127"
       inkscape:transform-center-y="-0.37968104" />
    <path
       style="fill:#ffffff;stroke:#000000;stroke-width:0.4909091;stroke-miterlimit:4;stroke-opacity:1;stroke-dasharray:none"
       d="m 146.66667,19.166666 a 6.6666665,6.6666665 0 1 1 -13.33334,0 6.6666665,6.6666665 0 1 1 13.33334,0 z"
       sodipodi:ry="6.6666665"
       sodipodi:rx="6.6666665"
       sodipodi:cy="19.166666"
       sodipodi:cx="140"
       id="path3055-2-2"
       sodipodi:type="arc"
       transform="matrix(0.78164838,0,0,0.3916525,-68.671691,23.005851)" />
    <path
       style="fill:#ffffff;stroke:#000000;stroke-width:0.1;stroke-linecap:butt;stroke-linejoin:miter;stroke-miterlimit:4;stroke-opacity:1;stroke-dasharray:none"
       d="m 39.269709,37.216841 c 0,-0.15959 0,-0.31918 0,-0.47877 0,-0.0246 0,-0.0491 0,-0.0737 0,-0.0123 -0.004,-0.0252 0,-0.0368 0.009,-0.026 0.0302,-0.047 0.0368,-0.0737 0.004,-0.0179 -0.01,-0.12784 0,-0.14732 0.008,-0.0155 0.0291,-0.0213 0.0368,-0.0368 0.005,-0.01 0,-0.19486 0,-0.22097 0,-0.0123 -0.005,-0.0259 0,-0.0368 0.008,-0.0155 0.0291,-0.0213 0.0368,-0.0368 0.006,-0.0117 0,-0.15122 0,-0.18414 0,-0.10198 0.0368,0.0283 0.0368,-0.0737 0,-0.0123 0.0123,-0.0368 0,-0.0368 -0.0174,0 -0.0224,0.0272 -0.0368,0.0368 -0.0336,0.0224 -0.0894,0.0314 -0.11049,0.0737 -0.005,0.011 0.009,0.0281 0,0.0368 -0.0184,0.0184 -0.0921,-0.0184 -0.11048,0 -0.0194,0.0194 -0.0174,0.0543 -0.0368,0.0737 -0.009,0.009 -0.0258,-0.006 -0.0368,0 -0.0155,0.008 -0.0224,0.0272 -0.0368,0.0368 -0.061,0.0407 -0.0836,0.0368 -0.14731,0.0368 -0.0246,0 -0.0517,-0.011 -0.0737,0 -0.011,0.006 0.009,0.0282 0,0.0368 -0.0174,0.0174 -0.0517,-0.011 -0.0737,0 -0.0155,0.008 -0.0213,0.0291 -0.0368,0.0368 -0.011,0.006 -0.0249,-0.003 -0.0368,0 -0.0377,0.009 -0.0758,0.0195 -0.11049,0.0368 -0.0155,0.008 -0.0213,0.0291 -0.0368,0.0368 -0.011,0.005 -0.0252,-0.004 -0.0368,0 -0.026,0.009 -0.0476,0.0281 -0.0736,0.0368 -0.0117,0.004 -0.0282,-0.009 -0.0368,0 -0.0123,0.0245 -0.0246,0.0491 -0.0368,0.0737 -0.0123,0 -0.0281,-0.009 -0.0368,0 -0.0174,0.0174 0.022,0.0627 0,0.0737 -0.022,0.011 -0.0517,-0.011 -0.0737,0 -0.011,0.006 0.005,0.0259 0,0.0368 -0.0407,0.0814 -0.0229,0.0114 -0.0737,0.0368 -0.0155,0.008 -0.0246,0.0245 -0.0368,0.0368 0,0.0123 0.011,0.0313 0,0.0368 -0.022,0.011 -0.0517,-0.011 -0.0737,0 -0.011,0.006 0.009,0.0282 0,0.0368 -0.0194,0.0194 -0.0542,0.0174 -0.0737,0.0368 -0.009,0.009 0.0246,0 0.0368,0 0.0246,0 0.0498,-0.006 0.0737,0 0.0377,0.009 0.0722,0.0305 0.11049,0.0368 0.0363,0.006 0.0737,0 0.11048,0 0.0123,0 0.0252,-0.004 0.0368,0 0.026,0.009 0.0476,0.0282 0.0737,0.0368 0.0116,0.004 0.0266,-0.007 0.0368,0 0.0289,0.0193 0.0448,0.0544 0.0737,0.0737 0.0102,0.007 0.0258,-0.006 0.0368,0 0.0155,0.008 0.0224,0.0272 0.0368,0.0368 0.0228,0.0152 0.0542,0.0174 0.0737,0.0368 0.009,0.009 -0.009,0.0282 0,0.0368 0.0174,0.0174 0.0563,-0.0174 0.0737,0 0.009,0.009 -0.009,0.0282 0,0.0368 0.009,0.009 0.0252,-0.004 0.0368,0 0.026,0.009 0.0476,0.0281 0.0737,0.0368 0.0233,0.008 0.0563,-0.0174 0.0737,0 0.009,0.009 -0.009,0.0282 0,0.0368 0.0174,0.0174 0.0517,-0.011 0.0737,0 0.0155,0.008 0.0213,0.0291 0.0368,0.0368 0.0368,0.0184 0.0737,-0.0368 0.11049,0 0.0506,0.0506 0.0736,0.12276 0.11048,0.18414 z"
       id="path4913-7"
       inkscape:connector-curvature="0" />
    <path
       style="fill:#ffffff;stroke:#000000;stroke-width:0.1;stroke-linecap:butt;stroke-linejoin:miter;stroke-miterlimit:4;stroke-opacity:1;stroke-dasharray:none"
       d="m 42.215989,36.038331 c -0.17361,0.0105 0.0434,-0.14074 0,-0.18414 -0.0194,-0.0194 -0.0542,-0.0174 -0.0737,-0.0368 -0.009,-0.009 0,-0.0246 0,-0.0368 0,-0.0245 0.011,-0.0517 0,-0.0737 -0.005,-0.011 -0.0258,0.006 -0.0368,0 -0.0155,-0.008 -0.0291,-0.0213 -0.0368,-0.0368 -0.007,-0.0146 0.008,-0.10296 0,-0.11049 -0.009,-0.009 -0.0282,0.009 -0.0368,0 -0.0194,-0.0194 -0.0216,-0.0508 -0.0368,-0.0737 -0.01,-0.0145 -0.0291,-0.0213 -0.0368,-0.0368 -0.005,-0.011 0.009,-0.0281 0,-0.0368 -0.009,-0.009 -0.0282,0.009 -0.0368,0 -0.009,-0.009 0,-0.0246 0,-0.0368 0,-0.0246 0.011,-0.0517 0,-0.0737 -0.005,-0.011 -0.0313,0.011 -0.0368,0 0,-0.20869 0.0246,-0.0123 -0.0368,-0.0737 -0.0174,-0.0174 0.0174,-0.0563 0,-0.0737 -0.009,-0.009 -0.0282,0.009 -0.0368,0 -0.009,-0.009 0,-0.0246 0,-0.0368 0,-0.0123 0,-0.0246 0,-0.0368 0,-0.22097 0,-0.44194 0,-0.66291 0,-0.0859 0,-0.17187 0,-0.2578 0,-0.0123 0,-0.0246 0,-0.0368 0,-0.0123 0.0123,-0.0368 0,-0.0368 -0.0174,0 -0.0213,0.0291 -0.0368,0.0368 -0.011,0.006 -0.0281,-0.009 -0.0368,0 -0.009,0.009 0.009,0.13845 0,0.14731 -0.0194,0.0194 -0.0543,0.0174 -0.0737,0.0368 -0.0184,0.0184 0.0184,0.0921 0,0.11049 -0.009,0.009 -0.0281,-0.009 -0.0368,0 -0.008,0.007 0.007,0.0959 0,0.11048 -0.0455,0.091 -0.0368,-0.0127 -0.0368,0.0737 0,0.0982 0.0123,-0.0123 -0.0368,0.0368 -0.0174,0.0174 0.011,0.0517 0,0.0737 -0.0766,0.15327 0.003,-0.0394 -0.0737,0.0368 -0.009,0.009 0.009,0.13845 0,0.14732 -0.009,0.009 -0.0282,-0.009 -0.0368,0 -0.005,0.005 -0.004,0.10293 0,0.11048 0.008,0.0155 0.0246,0.0246 0.0368,0.0368 0.0245,0.0245 0.0544,0.0448 0.0737,0.0737 0.007,0.0102 -0.005,0.0258 0,0.0368 0.008,0.0155 0.0291,0.0213 0.0368,0.0368 0.011,0.022 -0.0174,0.0563 0,0.0737 0.0174,0.0174 0.0517,-0.011 0.0736,0 0.15327,0.0766 -0.0394,-0.002 0.0368,0.0737 0.0174,0.0174 0.0563,-0.0174 0.0737,0 0.009,0.009 -0.009,0.0282 0,0.0368 0.009,0.009 0.0282,-0.009 0.0368,0 0.0123,0.0123 -0.0123,0.0614 0,0.0737 0.009,0.009 0.0282,-0.009 0.0368,0 0.0184,0.0184 -0.0184,0.0921 0,0.11049 0.009,0.009 0.0281,-0.009 0.0368,0 0.009,0.009 -0.009,0.0282 0,0.0368 0.009,0.009 0.0313,-0.011 0.0368,0 0.011,0.022 0,0.0491 0,0.0737 0,0.0123 -0.009,0.0282 0,0.0368 0.009,0.009 0.0246,0 0.0368,0 0,0.0123 -0.009,0.0282 0,0.0368 0.009,0.009 0.0313,-0.011 0.0368,0 0.011,0.022 -0.011,0.0517 0,0.0737 0.005,0.011 0.0329,-0.0117 0.0368,0 0.0155,0.0466 0,0.0982 0,0.14731 0,0.0123 0,0.0246 0,0.0368 0,0.0123 -0.012,0.0344 0,0.0368 0.0602,0.012 0.12276,0 0.18414,0 z"
       id="path4915-8"
       inkscape:connector-curvature="0" />
    <path
       style="fill:#ffffff;stroke:#000000;stroke-width:0.1;stroke-linecap:butt;stroke-linejoin:miter;stroke-miterlimit:4;stroke-opacity:1;stroke-dasharray:none"
       d="m 36.618059,35.449071 c 0,-0.12276 0,-0.24552 0,-0.36828 0,-0.0368 -0.0116,-0.0755 0,-0.11049 0.005,-0.0165 0.0291,-0.0213 0.0368,-0.0368 0.0147,-0.0295 -0.0147,-0.081 0,-0.11048 0.005,-0.011 0.0282,0.009 0.0368,0 0.009,-0.009 0,-0.0246 0,-0.0368 0,-0.0246 -0.011,-0.0517 0,-0.0737 0.005,-0.011 0.0281,0.009 0.0368,0 0.009,-0.009 -0.004,-0.0252 0,-0.0368 0.009,-0.026 0.0282,-0.0476 0.0368,-0.0737 0.007,-0.022 -0.007,-0.0516 0,-0.0737 0.009,-0.026 0.0281,-0.0476 0.0368,-0.0737 0.004,-0.0116 -0.005,-0.0258 0,-0.0368 0.008,-0.0155 0.0291,-0.0213 0.0368,-0.0368 0.0147,-0.0295 -0.0147,-0.081 0,-0.11049 0.008,-0.0155 0.0291,-0.0213 0.0368,-0.0368 0.01,-0.02 -0.0101,-0.13724 0,-0.14731 0.009,-0.009 0.0313,0.011 0.0368,0 0.011,-0.022 0,-0.0491 0,-0.0737 0,-0.0123 -0.009,-0.0282 0,-0.0368 0.009,-0.009 0.0282,0.009 0.0368,0 0.008,-0.007 -0.007,-0.0959 0,-0.11049 0.0455,-0.091 0.0368,0.0127 0.0368,-0.0737 0,-0.009 -10e-4,-0.1093 0,-0.11048 0.009,-0.009 0.0313,0.011 0.0368,0 0.011,-0.022 0,-0.0491 0,-0.0737 0,-0.0123 -0.009,-0.0281 0,-0.0368 0.009,-0.009 0.0281,0.009 0.0368,0 0.009,-0.009 0.009,-0.0282 0,-0.0368 -0.009,-0.009 -0.0246,0 -0.0368,0 -0.0123,0 -0.0282,-0.009 -0.0368,0 -0.009,0.009 0.009,0.0282 0,0.0368 -0.009,0.009 -0.0258,-0.006 -0.0368,0 -0.0155,0.008 -0.0213,0.0291 -0.0368,0.0368 -0.0112,0.006 -0.0939,0 -0.11049,0 -0.009,0 -0.1093,-10e-4 -0.11048,0 -0.009,0.009 0.009,0.0282 0,0.0368 -0.009,0.009 -0.0246,0 -0.0368,0 -0.0368,0 -0.0737,0 -0.11048,0 -0.0123,0 -0.0252,-0.004 -0.0368,0 -0.026,0.009 -0.0476,0.0282 -0.0737,0.0368 -0.0253,0.008 -0.0888,-0.0109 -0.11049,0 -0.15327,0.0766 0.0394,-0.002 -0.0368,0.0737 -0.0184,0.0184 -0.0921,-0.0184 -0.11049,0 -0.009,0.009 0.009,0.0282 0,0.0368 -0.006,0.006 -0.0961,-0.005 -0.11049,0 -0.0246,0.0123 -0.0491,0.0246 -0.0737,0.0368 0,0.0123 0.009,0.0281 0,0.0368 -0.0174,0.0174 -0.0517,-0.011 -0.0737,0 -0.0155,0.008 -0.0213,0.0291 -0.0368,0.0368 -0.022,0.011 -0.0517,-0.011 -0.0736,0 -0.0155,0.008 -0.0213,0.0291 -0.0368,0.0368 -0.011,0.005 -0.0281,-0.009 -0.0368,0 -0.009,0.009 0,0.0245 0,0.0368 0,0.0123 -0.005,0.0259 0,0.0368 0.008,0.0155 0.0291,0.0213 0.0368,0.0368 0.005,0.011 -0.005,0.0258 0,0.0368 0.008,0.0155 0.0291,0.0213 0.0368,0.0368 0.005,0.011 -0.009,0.0282 0,0.0368 0.0762,0.0762 -0.003,-0.11645 0.0736,0.0368 0.0542,0.10837 -0.0853,-0.0485 0.0368,0.0737 0.0123,0.0123 0.0291,0.0213 0.0368,0.0368 0.01,0.0196 -0.01,0.054 0,0.0737 0.0224,0.0447 0.0513,0.0289 0.0737,0.0737 0.005,0.011 -0.009,0.0282 0,0.0368 0.009,0.009 0.0281,-0.009 0.0368,0 0.0123,0.0123 -0.0122,0.0614 0,0.0737 0.009,0.009 0.0313,-0.011 0.0368,0 0.011,0.022 -0.008,0.0504 0,0.0737 0.005,0.0165 0.0291,0.0213 0.0368,0.0368 0.011,0.022 -0.0174,0.0563 0,0.0737 0.009,0.009 0.0282,-0.009 0.0368,0 0.009,0.009 0,0.0245 0,0.0368 0,0.0246 -0.011,0.0517 0,0.0737 0.0155,0.0311 0.0544,0.0448 0.0737,0.0737 0.007,0.0102 -0.005,0.0258 0,0.0368 0.12214,0.12214 -0.0174,-0.0347 0.0368,0.0737 0.0155,0.0311 0.0581,0.0426 0.0736,0.0737 0.005,0.011 -0.009,0.0282 0,0.0368 0.0184,0.0184 0.0921,-0.0184 0.11049,0 0.009,0.009 -0.009,0.0282 0,0.0368 0.009,0.009 0.0282,-0.009 0.0368,0 0.009,0.009 -0.009,0.0281 0,0.0368 0.009,0.009 0.0281,-0.009 0.0368,0 0.009,0.009 -0.009,0.0281 0,0.0368 0.009,0.009 0.0246,0 0.0368,0 0.0123,0.0614 0.0246,0.12276 0.0368,0.18414 z"
       id="path4917-0"
       inkscape:connector-curvature="0" />
    <path
       style="fill:#ffffff;stroke:#000000;stroke-width:0.1;stroke-linecap:butt;stroke-linejoin:miter;stroke-miterlimit:4;stroke-opacity:1;stroke-dasharray:none"
       d="m 41.663559,33.018391 c -0.0491,0.0368 -0.0947,0.0789 -0.14731,0.11049 -0.005,0.003 -0.21062,0 -0.22097,0 -0.0123,0 -0.0281,-0.009 -0.0368,0 -0.0491,0.0491 0.0614,0.0368 -0.0368,0.0368 -0.0737,0 -0.14731,0 -0.22097,0 -0.0166,0 -0.0993,-0.006 -0.11048,0 -0.0155,0.008 -0.0213,0.0291 -0.0368,0.0368 -0.0157,0.008 -0.16959,0 -0.18415,0 -0.13503,0 -0.27007,0 -0.40511,0 -0.0368,0 -0.0737,0 -0.11048,0 -0.0123,0 -0.0368,0.0123 -0.0368,0 0,-0.0123 0.0246,0 0.0368,0 0.0166,0 0.0993,-0.006 0.11048,0 0.0155,0.008 0.0213,0.0291 0.0368,0.0368 0.011,0.006 0.0282,-0.009 0.0368,0 0.0174,0.0174 -0.011,0.0517 0,0.0737 0.008,0.0155 0.0313,0.0204 0.0368,0.0368 0.007,0.0204 0,0.18388 0,0.22097 0,0.0123 -0.009,0.0282 0,0.0368 0.009,0.009 0.0281,-0.009 0.0368,0 0.0174,0.0174 -0.011,0.0517 0,0.0737 0.008,0.0155 0.0291,0.0213 0.0368,0.0368 0.0127,0.0254 -0.0129,0.17121 0,0.18414 0.009,0.009 0.0282,-0.009 0.0368,0 0.0184,0.0184 -0.0184,0.0921 0,0.11049 0.009,0.009 0.0281,-0.009 0.0368,0 0.0123,0.0123 -0.0123,0.0614 0,0.0737 0.009,0.009 0.0282,-0.009 0.0368,0 0.009,0.009 -0.009,0.0282 0,0.0368 0.009,0.009 0.0282,-0.009 0.0368,0 0.009,0.009 -0.009,0.0281 0,0.0368 0.009,0.009 0.0281,-0.009 0.0368,0 0.0194,0.0194 0.0216,0.0508 0.0368,0.0737 0.01,0.0144 0.0291,0.0213 0.0368,0.0368 0.011,0.022 -0.022,0.0627 0,0.0737 0.022,0.011 0.0517,0.011 0.0737,0 0.011,-0.006 0,-0.0246 0,-0.0368 0,-0.0123 0,-0.0246 0,-0.0368 0,-0.16766 -0.0174,-0.002 0.0368,-0.11049 0.005,-0.011 -0.005,-0.0258 0,-0.0368 0.008,-0.0155 0.0291,-0.0213 0.0368,-0.0368 0.005,-0.011 -0.009,-0.0282 0,-0.0368 0.009,-0.009 0.0252,0.004 0.0368,0 0.0269,-0.009 0.0936,-0.04 0.11048,-0.0737 0.011,-0.022 -0.0174,-0.0563 0,-0.0737 0.009,-0.009 0.0258,0.005 0.0368,0 0.0155,-0.008 0.0246,-0.0246 0.0368,-0.0368 0.0123,-0.0123 0.0291,-0.0213 0.0368,-0.0368 0.011,-0.022 -0.0174,-0.0563 0,-0.0737 0.009,-0.009 0.0281,0.009 0.0368,0 0.0174,-0.0174 -0.011,-0.0517 0,-0.0737 0.0766,-0.15327 -0.003,0.0394 0.0737,-0.0368 0.009,-0.009 -0.009,-0.0282 0,-0.0368 0.009,-0.009 0.0281,0.009 0.0368,0 0.0123,-0.0123 -0.0123,-0.0614 0,-0.0737 0.009,-0.009 0.0282,0.009 0.0368,0 0.009,-0.009 -0.009,-0.0282 0,-0.0368 0.009,-0.009 0.0282,0.009 0.0368,0 0.0174,-0.0174 -0.011,-0.0517 0,-0.0737 0.008,-0.0155 0.0291,-0.0213 0.0368,-0.0368 0.011,-0.022 -0.0174,-0.0563 0,-0.0737 0.009,-0.009 0.0281,0.009 0.0368,0 0.009,-0.009 -0.009,-0.0282 0,-0.0368 0.0762,-0.0762 -0.003,0.11644 0.0737,-0.0368 0.005,-0.011 -0.009,-0.0281 0,-0.0368 0.009,-0.009 0.0281,0.009 0.0368,0 0.009,-0.009 -0.008,-0.0272 0,-0.0368 0.0434,-0.0542 0.0982,-0.0982 0.14731,-0.14731 z"
       id="path4919-2"
       inkscape:connector-curvature="0" />
    <path
       style="fill:#ffffff;stroke:#000000;stroke-width:0.1;stroke-linecap:butt;stroke-linejoin:miter;stroke-miterlimit:4;stroke-opacity:1;stroke-dasharray:none"
       d="m 38.975079,33.055221 c 0.0105,-0.17361 -0.14073,0.0434 -0.18414,0 -0.009,-0.009 0.009,-0.0282 0,-0.0368 -0.009,-0.009 -0.0246,0 -0.0368,0 -0.0123,0 -0.0246,0 -0.0368,0 -0.005,0 -0.2401,0.006 -0.2578,0 -0.026,-0.009 -0.0476,-0.0282 -0.0737,-0.0368 -0.0233,-0.008 -0.0563,0.0174 -0.0737,0 -0.009,-0.009 0.009,-0.0281 0,-0.0368 -0.009,-0.009 -0.0246,0 -0.0368,0 -0.0197,0 -0.1736,0.005 -0.18414,0 -0.079,-0.0395 -0.002,-0.0402 -0.0368,-0.11049 -0.005,-0.011 -0.0282,0.009 -0.0368,0 -0.009,-0.009 0.009,-0.0282 0,-0.0368 -0.0123,-0.0123 -0.0614,0.0123 -0.0737,0 -0.009,-0.009 0.011,-0.0313 0,-0.0368 -0.022,-0.011 -0.0517,0.011 -0.0737,0 -0.011,-0.005 0.009,-0.0281 0,-0.0368 -0.006,-0.006 -0.0961,0.005 -0.11049,0 -0.026,-0.009 -0.0476,-0.0282 -0.0736,-0.0368 -0.0232,-0.008 -0.15095,0 -0.18414,0 -0.0123,0 -0.0282,0.009 -0.0368,0 -0.0184,-0.0184 0.0184,-0.0921 0,-0.11048 -0.009,-0.009 -0.0246,0 -0.0368,0 -0.0246,0 -0.0517,-0.011 -0.0737,0 -0.011,0.005 0,0.0246 0,0.0368 0,0.0123 0,0.0246 0,0.0368 0,0.0166 -0.006,0.0993 0,0.11048 0.008,0.0155 0.0291,0.0213 0.0368,0.0368 0.005,0.011 0,0.20548 0,0.22098 0,0.0174 -0.002,0.18247 0,0.18414 0.009,0.009 0.0282,-0.009 0.0368,0 0.0184,0.0184 -0.0184,0.0921 0,0.11048 0.0174,0.0174 0.0627,-0.022 0.0737,0 0.011,0.022 -0.011,0.0517 0,0.0737 0.005,0.011 0.0281,-0.009 0.0368,0 0.009,0.009 -0.009,0.0282 0,0.0368 0.009,0.009 0.0281,-0.009 0.0368,0 0.0123,0.0123 -0.0123,0.0614 0,0.0737 0.0762,0.0762 -0.003,-0.11644 0.0737,0.0368 0.011,0.022 -0.022,0.0627 0,0.0737 0.022,0.011 0.0517,-0.011 0.0737,0 0.011,0.006 -0.009,0.0282 0,0.0368 0.009,0.009 0.0246,0 0.0368,0 0,0.0246 -0.011,0.0517 0,0.0737 0.005,0.011 0.0282,-0.009 0.0368,0 0.008,0.008 -0.007,0.12701 0,0.14732 0.0423,0.12695 0.0368,0.0273 0.0368,0.11048 0,0.0246 0,0.0491 0,0.0737 0,0.0123 -0.009,0.0282 0,0.0368 0.009,0.009 0.0313,-0.011 0.0368,0 0.011,0.022 0,0.0491 0,0.0737 0,0.0123 -0.009,0.0282 0,0.0368 0.009,0.009 0.0282,-0.009 0.0368,0 0.0174,0.0174 -0.011,0.0517 0,0.0737 0.008,0.0155 0.0291,0.0213 0.0368,0.0368 0.005,0.011 -0.009,0.0282 0,0.0368 0.009,0.009 0.0282,0.009 0.0368,0 0.009,-0.009 -0.009,-0.0282 0,-0.0368 0.0184,-0.0184 0.0921,0.0184 0.11048,0 0.0388,-0.0388 0.028,-0.11686 0.0737,-0.14731 0.0204,-0.0136 0.0491,0 0.0737,0 0.14731,0 -0.0614,0.0123 0.0368,-0.0368 0.022,-0.011 0.0517,0.011 0.0737,0 0.011,-0.006 -0.005,-0.0259 0,-0.0368 0.008,-0.0155 0.0213,-0.0291 0.0368,-0.0368 0.011,-0.005 0.0281,0.009 0.0368,0 0.009,-0.009 -0.009,-0.0281 0,-0.0368 0.009,-0.009 0.0281,0.009 0.0368,0 0.009,-0.009 -0.005,-0.0259 0,-0.0368 0.008,-0.0155 0.0272,-0.0224 0.0368,-0.0368 0.0152,-0.0228 0.0216,-0.0508 0.0368,-0.0737 0.0193,-0.0289 0.0581,-0.0426 0.0737,-0.0737 0.005,-0.011 -0.005,-0.0259 0,-0.0368 0.008,-0.0155 0.0291,-0.0213 0.0368,-0.0368 0.011,-0.022 -0.0174,-0.0563 0,-0.0737 0.009,-0.009 0.0246,0 0.0368,0 0.0123,-0.0246 0.0281,-0.0476 0.0368,-0.0737 0.008,-0.0253 -0.0109,-0.0888 0,-0.11049 0.008,-0.0155 0.0291,-0.0213 0.0368,-0.0368 0.005,-0.011 -0.009,-0.0282 0,-0.0368 0.009,-0.009 0.0282,0.009 0.0368,0 0.009,-0.009 -0.009,-0.0282 0,-0.0368 0.009,-0.009 0.0281,0.009 0.0368,0 0.0174,-0.0174 -0.0174,-0.0563 0,-0.0737 0.009,-0.009 0.0282,0.009 0.0368,0 0.009,-0.009 -0.009,-0.0282 0,-0.0368 0.009,-0.009 0.0246,0 0.0368,0 0.0245,-0.0614 0.0491,-0.12276 0.0736,-0.18414 z"
       id="path4921-0"
       inkscape:connector-curvature="0" />
  </g>
</svg>
